<svg width="48" height="52" viewBox="0 0 48 52" fill="none" xmlns="http://www.w3.org/2000/svg">
<path d="M6.72554 32.8296C6.72554 33.604 6.41693 34.3467 5.86759 34.8942C5.31825 35.4418 4.57319 35.7494 3.79631 35.7494C3.01942 35.7494 2.27436 35.4418 1.72502 34.8942C1.17568 34.3467 0.867065 33.604 0.867065 32.8296V19.6904C0.867065 18.9161 1.17568 18.1734 1.72502 17.6258C2.27436 17.0783 3.01942 16.7706 3.79631 16.7706C4.57319 16.7706 5.31825 17.0783 5.86759 17.6258C6.41693 18.1734 6.72554 18.9161 6.72554 19.6904V32.8296ZM47.7349 32.8296C47.7349 33.604 47.4263 34.3467 46.8769 34.8942C46.3276 35.4418 45.5825 35.7494 44.8057 35.7494C44.0288 35.7494 43.2837 35.4418 42.7344 34.8942C42.185 34.3467 41.8764 33.604 41.8764 32.8296V19.6904C41.8764 18.9161 42.185 18.1734 42.7344 17.6258C43.2837 17.0783 44.0288 16.7706 44.8057 16.7706C45.5825 16.7706 46.3276 17.0783 46.8769 17.6258C47.4263 18.1734 47.7349 18.9161 47.7349 19.6904V32.8296ZM21.3717 48.8871C21.3717 49.6615 21.0631 50.4042 20.5138 50.9518C19.9644 51.4993 19.2194 51.8069 18.4425 51.8069C17.6656 51.8069 16.9206 51.4993 16.3712 50.9518C15.8219 50.4042 15.5133 49.6615 15.5133 48.8871V35.748C15.5133 34.9736 15.8219 34.2309 16.3712 33.6833C16.9206 33.1358 17.6656 32.8281 18.4425 32.8281C19.2194 32.8281 19.9644 33.1358 20.5138 33.6833C21.0631 34.2309 21.3717 34.9736 21.3717 35.748V48.8871ZM33.0887 48.8871C33.0887 49.6615 32.7801 50.4042 32.2307 50.9518C31.6814 51.4993 30.9363 51.8069 30.1595 51.8069C29.3826 51.8069 28.6375 51.4993 28.0882 50.9518C27.5388 50.4042 27.2302 49.6615 27.2302 48.8871V35.748C27.2302 34.9736 27.5388 34.2309 28.0882 33.6833C28.6375 33.1358 29.3826 32.8281 30.1595 32.8281C30.9363 32.8281 31.6814 33.1358 32.2307 33.6833C32.7801 34.2309 33.0887 34.9736 33.0887 35.748V48.8871Z" fill="#7CB342"/>
<path d="M9.65491 16.7707V38.6678C9.65491 39.4422 9.96352 40.1849 10.5129 40.7325C11.0622 41.28 11.8073 41.5877 12.5841 41.5877H36.0181C36.7949 41.5877 37.54 41.28 38.0893 40.7325C38.6387 40.1849 38.9473 39.4422 38.9473 38.6678V16.7707H9.65491ZM24.3011 2.1701C15.5134 2.1701 10.1602 7.49148 9.65491 13.8494H38.9473C38.4405 7.49148 33.0888 2.1701 24.3011 2.1701ZM18.4426 10.3427C18.0542 10.3427 17.6816 10.1889 17.407 9.91508C17.1323 9.6413 16.978 9.26996 16.978 8.88277C16.978 8.49558 17.1323 8.12424 17.407 7.85046C17.6816 7.57667 18.0542 7.42286 18.4426 7.42286C18.8311 7.42286 19.2036 7.57667 19.4783 7.85046C19.7529 8.12424 19.9072 8.49558 19.9072 8.88277C19.9072 9.26996 19.7529 9.6413 19.4783 9.91508C19.2036 10.1889 18.8311 10.3427 18.4426 10.3427ZM30.1596 10.3427C29.7711 10.3427 29.3986 10.1889 29.1239 9.91508C28.8493 9.6413 28.695 9.26996 28.695 8.88277C28.695 8.49558 28.8493 8.12424 29.1239 7.85046C29.3986 7.57667 29.7711 7.42286 30.1596 7.42286C30.548 7.42286 30.9206 7.57667 31.1952 7.85046C31.4699 8.12424 31.6242 8.49558 31.6242 8.88277C31.6242 9.26996 31.4699 9.6413 31.1952 9.91508C30.9206 10.1889 30.548 10.3427 30.1596 10.3427Z" fill="#7CB342"/>
<path d="M15.5132 0.710205L17.4656 3.74993M33.0887 0.710205L30.6486 4.35875L33.0887 0.710205Z" stroke="#7CB342" stroke-width="1.33147" stroke-linecap="round"/>
</svg>
