<svg width="69" height="42" viewBox="0 0 69 42" fill="none" xmlns="http://www.w3.org/2000/svg">
<path d="M19.3213 15.4577C19.3213 16.3016 19.4128 16.9856 19.5723 17.4873C19.7748 18.0518 20.0186 18.6005 20.3018 19.1291C20.4159 19.3115 20.4613 19.4938 20.4613 19.6536C20.4613 19.8815 20.3247 20.1096 20.0282 20.3377L18.5917 21.2954C18.3865 21.4323 18.1812 21.5006 17.9986 21.5006C17.7707 21.5006 17.5426 21.3866 17.3145 21.1813C17.0073 20.8511 16.7325 20.4923 16.4938 20.1096C16.2657 19.7222 16.0375 19.2886 15.7868 18.7643C14.0082 20.862 11.7733 21.9111 9.08265 21.9111C7.16733 21.9111 5.63937 21.3637 4.52192 20.2694C3.40474 19.1745 2.83472 17.7152 2.83472 15.891C2.83472 13.9529 3.5188 12.3794 4.90983 11.1937C6.30059 10.0079 8.14786 9.41499 10.4965 9.41499C11.2718 9.41499 12.07 9.48332 12.9136 9.59738C13.7574 9.71144 14.6239 9.89383 15.5361 10.0991V8.43447C15.5361 6.70126 15.1711 5.49289 14.4641 4.78594C13.7346 4.07899 12.5031 3.73681 10.7473 3.73681C9.94912 3.73681 9.12838 3.82828 8.28451 4.03353C7.44091 4.23851 6.6199 4.48949 5.82176 4.8088C5.45699 4.96832 5.18341 5.05952 5.02362 5.10525C4.8641 5.15098 4.75004 5.17357 4.65885 5.17357C4.33954 5.17357 4.18002 4.94546 4.18002 4.46663V3.34918C4.18002 2.9844 4.22575 2.71082 4.33954 2.5513C4.4536 2.39151 4.65885 2.23199 4.97816 2.07247C5.7763 1.66197 6.73396 1.31979 7.85114 1.04621C8.96886 0.749769 10.1546 0.613114 11.4087 0.613114C14.1225 0.613114 16.1064 1.2286 17.3834 2.46011C18.6375 3.69135 19.2761 5.56121 19.2761 8.0697V15.4577H19.3218H19.3213ZM10.0632 18.9238C10.8159 18.9238 11.5911 18.7872 12.4119 18.5133C13.2329 18.2397 13.9627 17.738 14.5782 17.054C14.9432 16.6209 15.2168 16.142 15.3535 15.5946C15.4904 15.0474 15.5816 14.386 15.5816 13.6107V12.653C14.89 12.4847 14.1896 12.3553 13.4836 12.2654C12.7727 12.1751 12.0568 12.1294 11.3402 12.1285C9.8122 12.1285 8.69501 12.4249 7.94261 13.0407C7.18993 13.6564 6.82515 14.5229 6.82515 15.6629C6.82515 16.7347 7.09873 17.5328 7.66876 18.0802C8.21618 18.6502 9.01433 18.9238 10.0632 18.9238ZM28.3742 21.3866C27.9637 21.3866 27.6901 21.3182 27.5077 21.1585C27.3253 21.0218 27.1655 20.7025 27.0289 20.2694L21.6703 2.6425C21.5331 2.18626 21.4647 1.88982 21.4647 1.7303C21.4647 1.36552 21.6471 1.16 22.0122 1.16H24.2468C24.6799 1.16 24.9766 1.2286 25.1361 1.38812C25.3185 1.52504 25.4554 1.84435 25.5921 2.27745L29.423 17.3733L32.9803 2.27745C33.0944 1.82149 33.2313 1.52504 33.4134 1.38812C33.5961 1.25147 33.9154 1.16027 34.3259 1.16027H36.15C36.5831 1.16027 36.8799 1.2286 37.062 1.38812C37.2446 1.52504 37.4042 1.84435 37.4953 2.27745L41.0984 17.5557L45.0431 2.27745C45.1798 1.82149 45.3396 1.52504 45.4991 1.38812C45.6815 1.25147 45.9779 1.16027 46.3884 1.16027H48.509C48.874 1.16027 49.0793 1.34266 49.0793 1.7303C49.0793 1.84435 49.0564 1.95841 49.0336 2.09507C49.0107 2.23199 48.9652 2.41438 48.874 2.66536L43.3782 20.292C43.2416 20.7482 43.0821 21.0447 42.8994 21.1813C42.717 21.3182 42.4206 21.4094 42.0332 21.4094H40.0722C39.6388 21.4094 39.3423 21.3411 39.1597 21.1813C38.9773 21.0218 38.8178 20.7254 38.7266 20.2694L35.1918 5.56121L31.6802 20.2463C31.5665 20.7025 31.4295 20.9989 31.2471 21.1585C31.0648 21.3182 30.7454 21.3866 30.3352 21.3866H28.3739H28.3742ZM57.6762 22.0023C56.4904 22.0023 55.3046 21.8654 54.1646 21.5918C53.0243 21.3182 52.1352 21.0215 51.5423 20.6799C51.1773 20.4744 50.9263 20.2465 50.8354 20.0413C50.7466 19.84 50.7 19.6226 50.6984 19.4027V18.2397C50.6984 17.7609 50.8808 17.5328 51.223 17.5328C51.3626 17.5333 51.5013 17.5565 51.6335 17.6014C51.7702 17.6471 51.9754 17.738 52.2035 17.8292C53.0089 18.1835 53.8497 18.451 54.7117 18.6274C55.605 18.8087 56.514 18.9003 57.4255 18.901C58.862 18.901 59.9794 18.6502 60.7547 18.1485C61.53 17.6469 61.9405 16.9173 61.9405 15.9822C61.9405 15.3439 61.7352 14.8193 61.3247 14.386C60.9142 13.9529 60.1389 13.5652 59.0218 13.2002L55.7151 12.1742C54.0505 11.6496 52.8193 10.8744 52.0666 9.84809C51.3142 8.8447 50.9266 7.72752 50.9266 6.54174C50.9266 5.58408 51.1318 4.74021 51.5423 4.01039C51.9525 3.28085 52.5 2.6425 53.1841 2.1408C53.8681 1.61624 54.6434 1.2286 55.5556 0.955021C56.4675 0.681441 57.4252 0.567383 58.4286 0.567383C58.9303 0.567383 59.4549 0.590248 59.9566 0.658576C60.4811 0.726903 60.9599 0.818097 61.4388 0.90929C61.8947 1.02335 62.3281 1.13741 62.7386 1.27433C63.1491 1.41099 63.4682 1.54791 63.6963 1.68457C64.0156 1.86722 64.2434 2.04961 64.3804 2.25486C64.5173 2.43724 64.5856 2.68796 64.5856 3.00727V4.07899C64.5856 4.55782 64.4032 4.8088 64.061 4.8088C63.8787 4.8088 63.5822 4.71734 63.1948 4.53495C61.8947 3.94206 60.4354 3.64562 58.8165 3.64562C57.5167 3.64562 56.4904 3.85087 55.7835 4.28424C55.0768 4.71734 54.7117 5.37883 54.7117 6.31362C54.7117 6.95224 54.9399 7.4994 55.3958 7.93277C55.8521 8.36587 56.6957 8.79924 57.9043 9.18688L61.1423 10.2131C62.7841 10.7377 63.9699 11.4672 64.6768 12.402C65.3837 13.3371 65.7259 14.4088 65.7259 15.5946C65.7259 16.5751 65.5204 17.4645 65.1328 18.2397C64.7225 19.015 64.1751 19.6991 63.4682 20.2465C62.7612 20.8165 61.9176 21.2271 60.9371 21.5235C59.9108 21.8428 58.8391 22.0023 57.6762 22.0023Z" fill="#252F3E"/>
<path d="M61.9861 33.0846C54.4841 38.6258 43.5839 41.5674 34.212 41.5674C21.0773 41.5674 9.24261 36.7102 0.303808 28.6379C-0.40314 27.9995 0.235211 27.1331 1.07881 27.6345C10.7474 33.2443 22.6735 36.6419 35.0102 36.6419C43.3332 36.6419 52.4773 34.909 60.8918 31.3516C62.1459 30.7813 63.2176 32.1726 61.9861 33.0846ZM65.1103 29.5272C64.1527 28.296 58.7709 28.9343 56.3311 29.2308C55.6012 29.3222 55.4872 28.6836 56.1487 28.2048C60.4355 25.1946 67.4819 26.0613 68.3026 27.0645C69.1236 28.0907 68.0745 35.1368 64.0612 38.5118C63.4457 39.0363 62.8528 38.7627 63.1264 38.0787C64.0383 35.8209 66.068 30.7359 65.1103 29.5272Z" fill="#FF9900"/>
</svg>
