<svg width="73" height="88" viewBox="0 0 73 88" fill="none" xmlns="http://www.w3.org/2000/svg">
<path d="M24.8953 86.2215H47.8899V41.1614H24.8953V86.2215ZM70.8278 86.2215V53.8868H47.897V86.2215H70.8278ZM2 69.7256V86.2215H24.8953V69.7256H2Z" stroke="#55C0CE" stroke-width="3" stroke-miterlimit="10" stroke-linecap="round" stroke-linejoin="round"/>
<path d="M56.8472 8.92826L64.0715 5.42719" stroke="#55C0CE" stroke-width="3" stroke-miterlimit="10" stroke-linecap="round" stroke-linejoin="round"/>
<path d="M63.7996 24.6229L56.5752 21.1218" stroke="#55C0CE" stroke-width="3" stroke-miterlimit="10" stroke-linecap="round" stroke-linejoin="round"/>
<path d="M16.0706 8.92826L8.84619 5.42719" stroke="#55C0CE" stroke-width="3" stroke-miterlimit="10" stroke-linecap="round" stroke-linejoin="round"/>
<path d="M9.11792 24.6229L16.3423 21.1218" stroke="#55C0CE" stroke-width="3" stroke-miterlimit="10" stroke-linecap="round" stroke-linejoin="round"/>
<path d="M36.779 2.19798L39.3156 9.99917C39.3346 10.0588 39.3721 10.1109 39.4227 10.1479C39.4732 10.1849 39.5342 10.2048 39.5969 10.2048H47.807C47.8694 10.2043 47.9303 10.2237 47.9809 10.2601C48.0315 10.2966 48.0691 10.3482 48.0884 10.4075C48.1076 10.4668 48.1075 10.5307 48.0879 10.5899C48.0683 10.6491 48.0304 10.7006 47.9796 10.7367L41.3391 15.564C41.2882 15.5999 41.2501 15.6512 41.2306 15.7104C41.211 15.7695 41.2109 15.8334 41.2304 15.8926L43.767 23.6938C43.7872 23.7531 43.7878 23.8174 43.7688 23.8771C43.7498 23.9369 43.7121 23.989 43.6614 24.0257C43.6106 24.0625 43.5494 24.082 43.4867 24.0814C43.424 24.0808 43.3631 24.0601 43.3131 24.0224L36.6679 19.2117C36.6174 19.175 36.5566 19.1552 36.4941 19.1552C36.4317 19.1552 36.3709 19.175 36.3204 19.2117L29.6775 24.0366C29.6274 24.0733 29.5669 24.0932 29.5048 24.0933C29.4426 24.0934 29.3821 24.0737 29.3318 24.0371C29.2816 24.0006 29.2442 23.949 29.2252 23.8898C29.2062 23.8307 29.2065 23.767 29.226 23.708L31.7626 15.9068C31.7813 15.8475 31.7809 15.7839 31.7614 15.7249C31.7418 15.6659 31.7042 15.6146 31.6538 15.5782L25.0181 10.7438C24.9673 10.7077 24.9294 10.6562 24.9098 10.597C24.8903 10.5378 24.8901 10.4739 24.9093 10.4146C24.9286 10.3553 24.9662 10.3036 25.0168 10.2672C25.0674 10.2308 25.1283 10.2114 25.1907 10.2119H33.4008C33.4635 10.2119 33.5245 10.1919 33.575 10.155C33.6256 10.118 33.6631 10.0659 33.6822 10.0063L36.2187 2.20507C36.2377 2.14612 36.2747 2.09461 36.3245 2.05782C36.3743 2.02102 36.4344 2.00081 36.4963 2.00002C36.5582 1.99924 36.6188 2.01793 36.6696 2.05345C36.7203 2.08897 36.7586 2.13953 36.779 2.19798Z" stroke="#55C0CE" stroke-width="3" stroke-linecap="round" stroke-linejoin="round"/>
</svg>
