<svg width="60" height="59" viewBox="0 0 60 59" fill="none" xmlns="http://www.w3.org/2000/svg">
<path d="M46.2439 56.6885L46.2396 56.6885C45.7784 56.6872 45.3185 56.6358 44.8679 56.5352L44.8587 56.5331L44.8495 56.5312C34.5374 54.363 25.0339 49.2796 17.4334 41.8625C10.0063 34.4356 4.85197 24.9785 2.59671 14.6329C2.37666 13.5584 2.43174 12.4444 2.7564 11.3983C3.08182 10.3496 3.66647 9.40647 4.45155 8.65827L4.45864 8.65151L4.46565 8.64465L11.238 2.01938C11.4311 1.83485 11.6586 1.69486 11.9052 1.60698C12.1484 1.5203 12.4058 1.48586 12.6616 1.50525C12.9268 1.53569 13.1836 1.62375 13.4149 1.76477C13.6508 1.90865 13.8549 2.10458 14.0114 2.34022L14.0122 2.34138L22.4767 15.057C22.6186 15.2813 22.6885 15.5484 22.673 15.8194C22.6574 16.0933 22.5559 16.3518 22.3875 16.5577C22.3873 16.558 22.387 16.5583 22.3868 16.5585L18.1355 21.723L17.5465 22.4386L17.923 23.2856C19.6919 27.2649 22.1968 30.8633 25.3027 33.8848C28.3889 37.0107 32.0369 39.5082 36.0501 41.2412L36.8819 41.6004L37.5869 41.0312L42.8539 36.7796C42.8543 36.7792 42.8548 36.7789 42.8553 36.7785C43.0591 36.6153 43.3038 36.5209 43.5568 36.5043C43.8035 36.4882 44.0508 36.5464 44.268 36.6739L57.0356 45.0616L57.058 45.0764L57.081 45.0903C57.325 45.2384 57.535 45.442 57.6939 45.6875C57.8528 45.9331 57.956 46.2136 57.9942 46.5081C58.0324 46.8027 58.0044 47.102 57.9128 47.3832C57.8227 47.6602 57.6735 47.9112 57.4779 48.1188L50.8818 54.7544L50.8789 54.7572C50.2674 55.3758 49.5428 55.864 48.7476 56.195C47.9524 56.5259 47.1016 56.6934 46.2439 56.6885Z" stroke="#55C0CE" stroke-width="3"/>
</svg>
