<svg width="94" height="88" viewBox="0 0 94 88" fill="none" xmlns="http://www.w3.org/2000/svg">
<path d="M84.5578 17.5386H87.0817C87.7357 17.5357 88.3838 17.662 88.9887 17.9105C89.5936 18.1589 90.1435 18.5245 90.6066 18.9862C91.0697 19.448 91.4369 19.9967 91.6872 20.6009C91.9374 21.2051 92.0658 21.8528 92.0648 22.5067V68.6895C92.0648 69.343 91.9357 69.99 91.6851 70.5934C91.4344 71.1969 91.067 71.7449 90.6041 72.206C90.1411 72.6672 89.5916 73.0323 88.9872 73.2806C88.3827 73.5288 87.7352 73.6552 87.0817 73.6526H7.44781C6.79616 73.6526 6.1509 73.5242 5.54889 73.2748C4.94687 73.0253 4.39991 72.6597 3.93924 72.1988C3.47857 71.7379 3.11323 71.1908 2.86408 70.5886C2.61493 69.9865 2.48687 69.3412 2.48719 68.6895V22.5067C2.48588 21.8546 2.61324 21.2085 2.86198 20.6057C3.11072 20.0028 3.47595 19.455 3.93674 18.9935C4.39754 18.532 4.94486 18.1659 5.54734 17.9163C6.14983 17.6666 6.79565 17.5383 7.44781 17.5386H9.99165" stroke="#55C0CE" stroke-width="3" stroke-linecap="round" stroke-linejoin="round"/>
<path d="M81.5581 2.02136H12.9816C11.3661 2.02136 10.0565 3.33095 10.0565 4.94641V49.9881C10.0565 51.6035 11.3661 52.9131 12.9816 52.9131H81.5581C83.1736 52.9131 84.4832 51.6035 84.4832 49.9881V4.94641C84.4832 3.33095 83.1736 2.02136 81.5581 2.02136Z" stroke="#55C0CE" stroke-width="3" stroke-linecap="round" stroke-linejoin="round"/>
<path d="M2.42273 61.5638H92.1822" stroke="#55C0CE" stroke-width="3" stroke-linecap="round" stroke-linejoin="round"/>
<path d="M10.0565 13.9185H84.4832" stroke="#55C0CE" stroke-width="3" stroke-linecap="round" stroke-linejoin="round"/>
<path d="M67.8595 6.60339H65.6545C65.4316 6.60339 65.2509 6.7841 65.2509 7.00702V9.18959C65.2509 9.41251 65.4316 9.59322 65.6545 9.59322H67.8595C68.0824 9.59322 68.2631 9.41251 68.2631 9.18959V7.00702C68.2631 6.7841 68.0824 6.60339 67.8595 6.60339Z" fill="#55C0CE"/>
<path d="M48.8093 66.3823H45.7946C44.969 66.3823 44.2997 67.0516 44.2997 67.8772C44.2997 68.7029 44.969 69.3721 45.7946 69.3721H48.8093C49.6349 69.3721 50.3042 68.7029 50.3042 67.8772C50.3042 67.0516 49.6349 66.3823 48.8093 66.3823Z" fill="#55C0CE"/>
<path d="M73.8194 6.60339H71.6144C71.3915 6.60339 71.2108 6.7841 71.2108 7.00702V9.18959C71.2108 9.41251 71.3915 9.59322 71.6144 9.59322H73.8194C74.0424 9.59322 74.2231 9.41251 74.2231 9.18959V7.00702C74.2231 6.7841 74.0424 6.60339 73.8194 6.60339Z" fill="#55C0CE"/>
<path d="M79.7765 6.60339H77.5715C77.3486 6.60339 77.1678 6.7841 77.1678 7.00702V9.18959C77.1678 9.41251 77.3486 9.59322 77.5715 9.59322H79.7765C79.9994 9.59322 80.1801 9.41251 80.1801 9.18959V7.00702C80.1801 6.7841 79.9994 6.60339 79.7765 6.60339Z" fill="#55C0CE"/>
<path d="M32.7323 21.0641H16.6969C15.8314 21.0641 15.1298 21.7657 15.1298 22.6313V44.5192C15.1298 45.3848 15.8314 46.0864 16.6969 46.0864H32.7323C33.5979 46.0864 34.2995 45.3848 34.2995 44.5192V22.6313C34.2995 21.7657 33.5979 21.0641 32.7323 21.0641Z" stroke="#55C0CE" stroke-width="3" stroke-linecap="round" stroke-linejoin="round"/>
<path d="M40.994 25.8129H77.6368" stroke="#55C0CE" stroke-width="3" stroke-linecap="round" stroke-linejoin="round"/>
<path d="M40.994 31.835H77.2107" stroke="#55C0CE" stroke-width="3" stroke-linecap="round" stroke-linejoin="round"/>
<path d="M40.994 37.8568H63.5547" stroke="#55C0CE" stroke-width="3" stroke-linecap="round" stroke-linejoin="round"/>
<path d="M55.8809 85.2207V73.6725H38.662V85.2207" stroke="#55C0CE" stroke-width="3" stroke-linecap="round" stroke-linejoin="round"/>
<path d="M55.7762 84.452H71.5824C71.7892 84.452 71.9939 84.4928 72.185 84.5719C72.376 84.651 72.5496 84.767 72.6958 84.9132C72.842 85.0594 72.958 85.233 73.0371 85.4241C73.1163 85.6151 73.157 85.8199 73.157 86.0267C73.157 86.2335 73.1163 86.4382 73.0371 86.6293C72.958 86.8203 72.842 86.9939 72.6958 87.1401C72.5496 87.2863 72.376 87.4023 72.185 87.4814C71.9939 87.5606 71.7892 87.6013 71.5824 87.6013H22.9604C22.5428 87.6013 22.1422 87.4354 21.8469 87.1401C21.5516 86.8448 21.3857 86.4443 21.3857 86.0267C21.3857 85.609 21.5516 85.2085 21.8469 84.9132C22.1422 84.6179 22.5428 84.452 22.9604 84.452H38.5573" fill="#55C0CE"/>
<path d="M56.0127 85.2231H38.7938" stroke="#55C0CE" stroke-width="3" stroke-miterlimit="10"/>
</svg>
