<svg width="99" height="90" viewBox="0 0 99 90" fill="none" xmlns="http://www.w3.org/2000/svg">
<path d="M57.638 64.9569C58.8288 56.9214 65.4989 49.5933 65.4989 49.5933L49.6869 21.8095L33.8021 49.5933C39.9947 56.5487 41.3864 62.5899 41.7008 64.9569" stroke="#55C0CE" stroke-width="3" stroke-linecap="round" stroke-linejoin="round"/>
<path d="M55.012 8.46289C86.8659 12.0119 88.0829 44.652 88.0829 44.652" stroke="#55C0CE" stroke-width="3" stroke-linecap="round" stroke-linejoin="round"/>
<path d="M11.2473 44.7222C11.2473 44.7222 13.2271 11.7649 44.0591 8.42545" stroke="#55C0CE" stroke-width="3" stroke-linecap="round" stroke-linejoin="round"/>
<path d="M86.371 8.29175H55.012" stroke="#55C0CE" stroke-width="3" stroke-linecap="round" stroke-linejoin="round"/>
<path d="M44.0591 8.29175H13.4891" stroke="#55C0CE" stroke-width="3" stroke-linecap="round" stroke-linejoin="round"/>
<path d="M61.822 73.6853C62.8751 73.4264 63.7967 72.7904 64.4123 71.8977C65.0279 71.005 65.2948 69.9175 65.1624 68.8412C65.03 67.7649 64.5076 66.7745 63.694 66.0575C62.8804 65.3406 61.8321 64.9469 60.7477 64.951H38.3297C37.2455 64.9476 36.1978 65.3418 35.3847 66.059C34.5717 66.7762 34.0497 67.7665 33.9177 68.8426C33.7857 69.9187 34.0528 71.0059 34.6684 71.8983C35.284 72.7907 36.2055 73.4265 37.2583 73.6853" stroke="#55C0CE" stroke-width="3" stroke-linecap="round" stroke-linejoin="round"/>
<path d="M49.7102 22.0771L49.5355 42.6289" stroke="#55C0CE" stroke-width="3" stroke-linecap="round" stroke-linejoin="round"/>
<path d="M49.4976 48.1404C51.0107 48.1404 52.2372 46.9138 52.2372 45.4007C52.2372 43.8876 51.0107 42.6611 49.4976 42.6611C47.9845 42.6611 46.7579 43.8876 46.7579 45.4007C46.7579 46.9138 47.9845 48.1404 49.4976 48.1404Z" stroke="#55C0CE" stroke-width="3" stroke-linecap="round" stroke-linejoin="round"/>
<path d="M16.6044 44.7399H5.64868V55.6956H16.6044V44.7399Z" stroke="#55C0CE" stroke-width="3" stroke-linecap="round" stroke-linejoin="round"/>
<path d="M93.4719 44.7399H82.5162V55.6956H93.4719V44.7399Z" stroke="#55C0CE" stroke-width="3" stroke-linecap="round" stroke-linejoin="round"/>
<path d="M97.4226 2.63208H86.4669V13.5878H97.4226V2.63208Z" stroke="#55C0CE" stroke-width="3" stroke-linecap="round" stroke-linejoin="round"/>
<path d="M13.3784 2.63208H2.42273V13.5878H13.3784V2.63208Z" stroke="#55C0CE" stroke-width="3" stroke-linecap="round" stroke-linejoin="round"/>
<path d="M55.0148 2H44.0591V12.9557H55.0148V2Z" stroke="#55C0CE" stroke-width="3" stroke-linecap="round" stroke-linejoin="round"/>
<path d="M37.2522 88.1112V73.6851C37.6027 73.7717 37.9625 73.8157 38.3236 73.8161H60.7416C61.1037 73.8157 61.4644 73.7718 61.8159 73.6851V88.1112" stroke="#55C0CE" stroke-width="3" stroke-linecap="round" stroke-linejoin="round"/>
</svg>
