<svg width="90" height="87" viewBox="0 0 90 87" fill="none" xmlns="http://www.w3.org/2000/svg">
<path d="M80.9805 16.8555H83.4107C84.6696 16.8561 85.8768 17.3566 86.7667 18.2471C87.6567 19.1375 88.1566 20.3448 88.1566 21.6038V65.8098C88.1566 67.069 87.6568 68.2766 86.7669 69.1674C85.877 70.0582 84.6699 70.5592 83.4107 70.5605H7.17102C6.54726 70.5605 5.92962 70.4376 5.35338 70.1988C4.77713 69.96 4.25358 69.6101 3.81263 69.1689C3.37168 68.7277 3.02197 68.204 2.78349 67.6276C2.545 67.0513 2.42242 66.4336 2.42273 65.8098V21.6038C2.42242 20.9801 2.54502 20.3625 2.78353 19.7863C3.02205 19.2101 3.37179 18.6865 3.81277 18.2455C4.25375 17.8045 4.77733 17.4548 5.35356 17.2163C5.92979 16.9778 6.54738 16.8552 7.17102 16.8555H9.60598" stroke="#C6B3AF" stroke-width="3" stroke-linecap="round" stroke-linejoin="round"/>
<path d="M9.80579 49.1013V4.79985C9.80642 4.05706 10.1019 3.34491 10.6274 2.81991C11.1528 2.29491 11.8652 2 12.608 2H78.247C78.6148 2 78.9791 2.0725 79.319 2.21335C79.6588 2.35421 79.9676 2.56066 80.2276 2.8209C80.4876 3.08114 80.6938 3.39008 80.8344 3.73004C80.9749 4.07001 81.0471 4.43435 81.0468 4.80223V49.1013" stroke="#C6B3AF" stroke-width="3" stroke-linecap="round" stroke-linejoin="round"/>
<path d="M4.10217 58.9249L87.4854 58.9249" stroke="#C6B3AF" stroke-width="3" stroke-linecap="round" stroke-linejoin="round"/>
<path d="M9.80579 13.3857H81.0468" stroke="#C6B3AF" stroke-width="3" stroke-linecap="round" stroke-linejoin="round"/>
<path d="M16.6266 6.38109H16.6051C15.8148 6.38109 15.1742 7.02174 15.1742 7.81201C15.1742 8.60229 15.8148 9.24294 16.6051 9.24294H16.6266C17.4169 9.24294 18.0575 8.60229 18.0575 7.81201C18.0575 7.02174 17.4169 6.38109 16.6266 6.38109Z" fill="#C6B3AF"/>
<path d="M46.9002 63.6036H44.0145C43.2243 63.6036 42.5836 64.2442 42.5836 65.0345C42.5836 65.8248 43.2243 66.4654 44.0145 66.4654H46.9002C47.6905 66.4654 48.3312 65.8248 48.3312 65.0345C48.3312 64.2442 47.6905 63.6036 46.9002 63.6036Z" fill="#C6B3AF"/>
<path d="M22.3289 6.38109H22.3074C21.5171 6.38109 20.8765 7.02174 20.8765 7.81201C20.8765 8.60229 21.5171 9.24294 22.3074 9.24294H22.3289C23.1191 9.24294 23.7598 8.60229 23.7598 7.81201C23.7598 7.02174 23.1191 6.38109 22.3289 6.38109Z" fill="#C6B3AF"/>
<path d="M28.0334 6.38109H28.012C27.2217 6.38109 26.5811 7.02174 26.5811 7.81201C26.5811 8.60229 27.2217 9.24294 28.012 9.24294H28.0334C28.8237 9.24294 29.4644 8.60229 29.4644 7.81201C29.4644 7.02174 28.8237 6.38109 28.0334 6.38109Z" fill="#C6B3AF"/>
<path d="M73.5179 6.38109H52.4093C51.619 6.38109 50.9784 7.02174 50.9784 7.81201C50.9784 8.60229 51.619 9.24294 52.4093 9.24294H73.5179C74.3081 9.24294 74.9488 8.60229 74.9488 7.81201C74.9488 7.02174 74.3081 6.38109 73.5179 6.38109Z" fill="#C6B3AF"/>
<path d="M50.0131 84.5323V70.9187H40.9849V84.5323" stroke="#C6B3AF" stroke-width="3" stroke-linecap="round" stroke-linejoin="round"/>
<path d="M66.2365 84.5325H23.6941" stroke="#C6B3AF" stroke-width="3" stroke-miterlimit="10" stroke-linecap="round"/>
<path d="M37.9833 25.4238L23.116 33.5443L37.9833 41.5599" stroke="#C6B3AF" stroke-width="3" stroke-linecap="round" stroke-linejoin="round"/>
<path d="M48.9991 19.6218L39.6504 47.5057" stroke="#C6B3AF" stroke-width="3" stroke-linecap="round" stroke-linejoin="round"/>
<path d="M51.9442 41.5599L66.7734 33.5443L51.9442 25.4238" stroke="#C6B3AF" stroke-width="3" stroke-linecap="round" stroke-linejoin="round"/>
</svg>
