<svg width="39" height="40" viewBox="0 0 39 40" fill="none" xmlns="http://www.w3.org/2000/svg">
<path d="M3.67921 37.2773C3.45807 37.2767 3.23921 37.2325 3.03514 37.1473C2.83107 37.0621 2.64578 36.9376 2.48986 36.7807C2.33393 36.6239 2.21041 36.4379 2.12636 36.2334C2.04232 36.0288 1.99938 35.8097 2.00001 35.5886V3.96609C2.00001 3.03303 2.75171 2.27734 3.67921 2.27734H35.3216C36.2483 2.27734 37 3.03303 37 3.96609V35.5886C37.0006 35.8097 36.9577 36.0288 36.8736 36.2334C36.7896 36.4379 36.6661 36.6239 36.5102 36.7807C36.3542 36.9376 36.1689 37.0621 35.9649 37.1473C35.7608 37.2325 35.5419 37.2767 35.3208 37.2773H3.67842H3.67921Z" stroke="white" stroke-width="4" stroke-linecap="round" stroke-linejoin="round"/>
<path fill-rule="evenodd" clip-rule="evenodd" d="M31.162 14.9148H27.2898C26.7742 14.9148 26.2797 15.1196 25.9151 15.4842C25.5505 15.8488 25.3457 16.3433 25.3457 16.8589V20.7487H31.162L30.3109 26.5809H25.3457V37.2774H18.9478V26.5809H13.666V20.7495H18.8802L18.9478 15.2139L18.9287 13.23C18.9223 12.5598 19.0488 11.895 19.3009 11.2739C19.5529 10.6529 19.9255 10.0879 20.3972 9.61173C20.8689 9.13555 21.4303 8.75756 22.0489 8.4996C22.6675 8.24165 23.3311 8.10886 24.0014 8.10889H31.162V14.9148Z" fill="white"/>
</svg>
