<svg width="39" height="40" viewBox="0 0 39 40" fill="none" xmlns="http://www.w3.org/2000/svg">
<path fill-rule="evenodd" clip-rule="evenodd" d="M11.4607 0.394344C13.5401 0.298616 14.2031 0.277344 19.5 0.277344C24.7969 0.277344 25.4599 0.300389 27.5375 0.394344C29.6152 0.488298 31.0334 0.819798 32.2743 1.30021C33.5737 1.79125 34.7525 2.55884 35.7275 3.55157C36.7203 4.5248 37.4861 5.70189 37.9754 7.00307C38.4575 8.24398 38.7873 9.66216 38.883 11.7363C38.9787 13.8192 39 14.4822 39 19.7773C39 25.0743 38.977 25.7373 38.883 27.8167C38.789 29.8908 38.4575 31.3089 37.9754 32.5498C37.4861 33.8512 36.719 35.0302 35.7275 36.0049C34.7525 36.9976 33.5737 37.7634 32.2743 38.2527C31.0334 38.7349 29.6152 39.0646 27.5411 39.1603C25.4599 39.2561 24.7969 39.2773 19.5 39.2773C14.2031 39.2773 13.5401 39.2543 11.4607 39.1603C9.38659 39.0664 7.96841 38.7349 6.7275 38.2527C5.42618 37.7634 4.24714 36.9963 3.27245 36.0049C2.2804 35.0311 1.51269 33.8526 1.02286 32.5516C0.542455 31.3107 0.212727 29.8925 0.117 27.8184C0.0212727 25.7355 0 25.0725 0 19.7773C0 14.4804 0.0230454 13.8174 0.117 11.7398C0.210955 9.66216 0.542455 8.24398 1.02286 7.00307C1.51342 5.70203 2.28171 4.52358 3.27423 3.5498C4.24753 2.55796 5.42538 1.79027 6.72573 1.30021C7.96664 0.819798 9.38482 0.490071 11.4589 0.394344H11.4607ZM27.3798 3.90434C25.3234 3.81039 24.7065 3.79089 19.5 3.79089C14.2935 3.79089 13.6766 3.81039 11.6202 3.90434C9.71809 3.99121 8.68636 4.30853 7.99855 4.57621C7.08914 4.93075 6.43855 5.35089 5.75605 6.03339C5.10908 6.6628 4.61118 7.42903 4.29886 8.27589C4.03118 8.96371 3.71386 9.99543 3.627 11.8976C3.53305 13.9539 3.51355 14.5708 3.51355 19.7773C3.51355 24.9838 3.53305 25.6008 3.627 27.6571C3.71386 29.5593 4.03118 30.591 4.29886 31.2788C4.61086 32.1244 5.109 32.892 5.75605 33.5213C6.38536 34.1683 7.15295 34.6665 7.99855 34.9785C8.68636 35.2462 9.71809 35.5635 11.6202 35.6503C13.6766 35.7443 14.2917 35.7638 19.5 35.7638C24.7083 35.7638 25.3234 35.7443 27.3798 35.6503C29.2819 35.5635 30.3136 35.2462 31.0015 34.9785C31.9109 34.6239 32.5615 34.2038 33.244 33.5213C33.891 32.892 34.3891 32.1244 34.7011 31.2788C34.9688 30.591 35.2861 29.5593 35.373 27.6571C35.467 25.6008 35.4865 24.9838 35.4865 19.7773C35.4865 14.5708 35.467 13.9539 35.373 11.8976C35.2861 9.99543 34.9688 8.96371 34.7011 8.27589C34.3466 7.36648 33.9265 6.71589 33.244 6.03339C32.6145 5.38647 31.8483 4.88858 31.0015 4.57621C30.3136 4.30853 29.2819 3.99121 27.3798 3.90434ZM17.0093 25.7887C18.4003 26.3677 19.9492 26.4458 21.3914 26.0098C22.8336 25.5737 24.0796 24.6504 24.9168 23.3977C25.7539 22.1449 26.1301 20.6404 25.9812 19.1411C25.8322 17.6418 25.1674 16.2407 24.1002 15.1771C23.4199 14.4972 22.5973 13.9766 21.6917 13.6528C20.786 13.329 19.8199 13.21 18.8627 13.3044C17.9055 13.3988 16.9812 13.7043 16.1563 14.1988C15.3314 14.6933 14.6263 15.3646 14.0919 16.1643C13.5576 16.964 13.2072 17.8722 13.0659 18.8235C12.9247 19.7749 12.9961 20.7458 13.2751 21.6662C13.5541 22.5867 14.0338 23.4338 14.6795 24.1466C15.3252 24.8595 16.1209 25.4203 17.0093 25.7887ZM12.4126 12.69C13.3434 11.7593 14.4483 11.021 15.6643 10.5173C16.8804 10.0136 18.1838 9.7543 19.5 9.7543C20.8162 9.7543 22.1196 10.0136 23.3357 10.5173C24.5517 11.021 25.6566 11.7593 26.5874 12.69C27.5181 13.6207 28.2564 14.7256 28.7601 15.9417C29.2638 17.1577 29.523 18.4611 29.523 19.7773C29.523 21.0936 29.2638 22.3969 28.7601 23.613C28.2564 24.829 27.5181 25.934 26.5874 26.8647C24.7077 28.7444 22.1583 29.8004 19.5 29.8004C16.8417 29.8004 14.2923 28.7444 12.4126 26.8647C10.533 24.985 9.47695 22.4356 9.47695 19.7773C9.47695 17.1191 10.533 14.5697 12.4126 12.69ZM31.746 11.247C31.9766 11.0294 32.1613 10.7678 32.289 10.4776C32.4167 10.1874 32.4849 9.87448 32.4895 9.55745C32.4941 9.24041 32.4351 8.92568 32.3159 8.63187C32.1967 8.33806 32.0198 8.07116 31.7956 7.84696C31.5714 7.62276 31.3045 7.44582 31.0107 7.32662C30.7168 7.20743 30.4021 7.14839 30.0851 7.15301C29.768 7.15764 29.4552 7.22582 29.165 7.35353C28.8747 7.48124 28.6131 7.66589 28.3955 7.89653C27.9724 8.34508 27.7408 8.94088 27.7497 9.55745C27.7587 10.174 28.0077 10.7628 28.4437 11.1988C28.8797 11.6349 29.4685 11.8838 30.0851 11.8928C30.7016 11.9018 31.2974 11.6701 31.746 11.247Z" fill="white"/>
</svg>
