<svg width="65" height="78" viewBox="0 0 65 78" fill="none" xmlns="http://www.w3.org/2000/svg">
<path d="M35.5369 13.8621C39.372 14.5173 42.9091 16.3467 45.6602 19.0977C48.4112 21.8488 50.2406 25.3859 50.8958 29.221M62.7132 32.365C62.7213 36.9664 61.6809 41.5091 59.6708 45.6482C57.6608 49.7873 54.734 53.4139 51.1127 56.2527C50.2286 56.9279 49.5114 57.7971 49.0164 58.7934C48.5214 59.7896 48.2618 60.8863 48.2577 61.9987V64.167C48.2577 65.3172 47.8008 66.4202 46.9875 67.2335C46.1743 68.0468 45.0712 68.5037 43.9211 68.5037H20.7924C19.6422 68.5037 18.5392 68.0468 17.7259 67.2335C16.9126 66.4202 16.4557 65.3172 16.4557 64.167V61.9987C16.4614 60.8935 16.2096 59.8021 15.7203 58.811C15.231 57.82 14.5178 56.9564 13.6369 56.2888C10.0262 53.4706 7.10265 49.8691 5.08686 45.7561C3.07107 41.6431 2.01567 37.1261 2.00029 32.5457C1.92802 16.1027 15.1909 2.40613 31.634 2.00861C35.6808 1.91222 39.7061 2.62621 43.4729 4.10855C47.2398 5.5909 50.6721 7.81165 53.568 10.6402C56.4638 13.4687 58.7647 16.8478 60.3353 20.5787C61.9058 24.3097 62.7143 28.317 62.7132 32.365Z" stroke="#C6B3AF" stroke-width="3" stroke-linecap="round"/>
<line x1="20.1238" y1="76.5" x2="44.5891" y2="76.5" stroke="#C6B3AF" stroke-width="3" stroke-linecap="round"/>
</svg>
