<svg width="48" height="50" viewBox="0 0 48 50" fill="none" xmlns="http://www.w3.org/2000/svg">
<path d="M47.7432 11.8317C47.7356 11.8095 47.7267 11.7879 47.7163 11.7668C47.7026 11.7257 47.6857 11.6858 47.6656 11.6474C47.6501 11.6236 47.6328 11.6009 47.6139 11.5796C47.5928 11.5482 47.5698 11.5183 47.5449 11.4898C47.5229 11.4688 47.4951 11.4516 47.4711 11.4325C47.4438 11.4091 47.415 11.3874 47.3849 11.3676L38.1653 6.07435C38.0489 6.00729 37.9167 5.97198 37.7822 5.97198C37.6477 5.97198 37.5156 6.00729 37.3991 6.07435L28.1776 11.3704C28.148 11.3904 28.1198 11.4124 28.0933 11.4363C28.0672 11.4538 28.0422 11.473 28.0186 11.4936C27.9935 11.5216 27.9705 11.5513 27.9496 11.5825C27.9333 11.6054 27.9123 11.6254 27.8979 11.6503C27.8785 11.6889 27.8619 11.7288 27.8481 11.7697C27.8404 11.7916 27.828 11.8117 27.8213 11.8346C27.8037 11.8994 27.7947 11.9662 27.7945 12.0333V22.0848L20.1111 26.4965V6.82793C20.1113 6.76049 20.1023 6.69334 20.0843 6.62832C20.0786 6.60539 20.0651 6.58534 20.0575 6.56337C20.0441 6.52262 20.0275 6.48301 20.0077 6.44493C19.9943 6.4201 19.9722 6.40004 19.956 6.37617C19.9349 6.34482 19.9119 6.31483 19.887 6.28639C19.8631 6.26601 19.8382 6.24688 19.8123 6.22908C19.7855 6.20586 19.7573 6.18417 19.728 6.16413L10.5055 0.870923C10.389 0.80386 10.2569 0.768555 10.1224 0.768555C9.98791 0.768555 9.85577 0.80386 9.73929 0.870923L0.518717 6.16413C0.488782 6.18365 0.460583 6.2057 0.434432 6.23004C0.408018 6.24752 0.382746 6.26666 0.358768 6.28734C0.333995 6.31529 0.311269 6.34497 0.290765 6.37617C0.273525 6.40004 0.252454 6.4201 0.238087 6.44493C0.21846 6.48296 0.202119 6.52258 0.18924 6.56337C0.178779 6.58416 0.169506 6.60552 0.161464 6.62736C0.143844 6.69278 0.134829 6.7602 0.134646 6.82793V38.3179C0.134279 38.4523 0.16951 38.5845 0.236778 38.7011C0.304047 38.8176 0.400971 38.9144 0.51776 38.9817L18.9551 49.5681C18.9961 49.5887 19.0387 49.6059 19.0825 49.6196C19.1026 49.6273 19.1217 49.6388 19.1428 49.6445C19.2714 49.6789 19.4069 49.6789 19.5355 49.6445C19.5547 49.6397 19.5709 49.6292 19.5882 49.6235C19.6344 49.609 19.6793 49.5904 19.7223 49.5681L38.1653 38.9817C38.2821 38.9144 38.379 38.8176 38.4463 38.7011C38.5136 38.5845 38.5488 38.4523 38.5484 38.3179V28.2644L47.383 23.1918C47.5005 23.1242 47.5979 23.0266 47.6652 22.9092C47.7325 22.7917 47.7674 22.6585 47.7661 22.5232V12.0314C47.7667 11.9641 47.759 11.8971 47.7432 11.8317ZM10.1214 2.41915L17.8019 6.82698L10.1205 11.2377L2.44099 6.82793L10.1214 2.41915ZM18.5739 8.1498V27.378L14.1173 29.9368L10.8905 31.7897V12.5643L15.3471 10.0056L18.5739 8.1498ZM18.5739 47.5748L1.67093 37.8747V8.15362L4.8977 10.0046L9.35331 12.5643V33.1163C9.35525 33.1452 9.35909 33.1739 9.3648 33.2023C9.36709 33.2402 9.37222 33.2779 9.38012 33.315C9.38986 33.3446 9.40203 33.3734 9.41652 33.401C9.42719 33.4339 9.44064 33.4658 9.45675 33.4965C9.47445 33.5224 9.49364 33.5473 9.51421 33.571C9.53338 33.5991 9.5545 33.626 9.57743 33.6512C9.59946 33.6722 9.62723 33.6875 9.65118 33.7066C9.67733 33.7292 9.70483 33.7503 9.73355 33.7696L18.5633 38.7534L18.5739 47.5748ZM19.3401 37.4344L11.6721 33.1058L19.7261 28.4821L28.5626 23.4096L36.2373 27.8155L30.6056 31.0208L19.3401 37.4344ZM37.0131 37.8709L20.1092 47.5795V38.7629L32.6293 31.6378L37.0131 29.1402V37.8709ZM37.0131 26.4927L33.7863 24.6464L29.3298 22.0877V13.3561L32.5566 15.209L37.0131 17.7697V26.4927ZM37.7793 16.4373L30.0979 12.0275L37.7793 7.61876L45.4588 12.0266L37.7793 16.4373ZM38.5456 26.4927V17.7697L43.0117 15.209L46.2375 13.3561V22.0848L38.5456 26.4927Z" fill="#FF5454"/>
</svg>
