<svg width="99" height="69" viewBox="0 0 99 69" fill="none" xmlns="http://www.w3.org/2000/svg">
<path d="M83.0173 2.4353C88.9585 8.29057 93.2211 15.1685 95.2005 23.2782C99.1738 39.5664 95.361 53.9038 83.9598 66.2131C83.6246 66.5711 83.2608 66.9063 82.9257 67.2644" stroke="#FC9398" stroke-width="3" stroke-linecap="round" stroke-linejoin="round"/>
<path d="M16.157 67.2101C9.16737 60.335 4.64701 52.1193 3.08579 42.4254C0.6967 27.5724 4.78737 14.6387 14.9768 3.60418C15.4781 3.06277 16.0425 2.57579 16.4979 2" stroke="#FC9398" stroke-width="3" stroke-linecap="round" stroke-linejoin="round"/>
<path d="M34.6884 55.3048C23.121 43.5284 23.1239 26.1316 34.6884 14.2979" stroke="#FC9398" stroke-width="3" stroke-linecap="round" stroke-linejoin="round"/>
<path d="M64.7208 14.3925C70.3956 20.1675 73.3146 27.0999 73.2144 35.1924C73.1198 42.9556 70.238 49.6244 64.7752 55.1474" stroke="#FC9398" stroke-width="3" stroke-linecap="round" stroke-linejoin="round"/>
<path d="M41.7553 34.8398C41.7592 36.3955 42.224 37.9152 43.0911 39.2069C43.9581 40.4986 45.1884 41.5044 46.6266 42.0974C48.0649 42.6904 49.6466 42.844 51.1721 42.5387C52.6975 42.2333 54.0983 41.4829 55.1975 40.382C56.2968 39.2812 57.0452 37.8793 57.3483 36.3534C57.6514 34.8275 57.4956 33.246 56.9005 31.8086C56.3054 30.3712 55.2978 29.1424 54.0048 28.2773C52.7118 27.4121 51.1915 26.9495 49.6358 26.9478C47.5447 26.9509 45.5403 27.7837 44.0627 29.2634C42.5852 30.7431 41.7552 32.7487 41.7553 34.8398Z" fill="#FC9398"/>
</svg>
