<svg width="39" height="40" viewBox="0 0 39 40" fill="none" xmlns="http://www.w3.org/2000/svg">
<path d="M4.43182 0.277344C3.25901 0.285698 2.13661 0.755303 1.30728 1.58463C0.477959 2.41395 0.00835433 3.53635 0 4.70916V34.8455C0 37.2688 2.0085 39.2773 4.43182 39.2773H34.5682C36.9915 39.2773 39 37.2688 39 34.8455V4.70916C39 2.28584 36.9915 0.277344 34.5682 0.277344H4.43182ZM4.43182 3.8228H34.5682C35.0734 3.8228 35.4545 4.20393 35.4545 4.70916V34.8455C35.457 34.9626 35.4357 35.0789 35.392 35.1876C35.3483 35.2962 35.2831 35.3949 35.2003 35.4777C35.1175 35.5604 35.0188 35.6256 34.9102 35.6693C34.8016 35.713 34.6852 35.7343 34.5682 35.7319H4.43182C4.31469 35.7346 4.19824 35.7135 4.08949 35.6698C3.98075 35.6263 3.88197 35.5611 3.79913 35.4782C3.71629 35.3954 3.65109 35.2966 3.60749 35.1878C3.56389 35.0791 3.54279 34.9627 3.54545 34.8455V4.70916C3.54545 4.20393 3.92659 3.8228 4.43182 3.8228ZM9.64009 6.87012C9.23384 6.86032 8.82974 6.93187 8.45156 7.08056C8.07337 7.22925 7.72875 7.45208 7.43796 7.73594C7.14717 8.0198 6.91609 8.35895 6.75832 8.73343C6.60055 9.10792 6.51928 9.51018 6.51928 9.91655C6.51928 10.3229 6.60055 10.7252 6.75832 11.0997C6.91609 11.4741 7.14717 11.8133 7.43796 12.0972C7.72875 12.381 8.07337 12.6038 8.45156 12.7525C8.82974 12.9012 9.23384 12.9728 9.64009 12.963C10.4353 12.9438 11.1915 12.6144 11.7472 12.0452C12.3029 11.476 12.6139 10.712 12.6139 9.91655C12.6139 9.12108 12.3029 8.35714 11.7472 7.78791C11.1915 7.21869 10.4353 6.8893 9.64009 6.87012ZM25.6478 14.9573C23.1075 14.9573 21.4181 16.3489 20.7196 17.6713H20.608V15.3455H15.6213V32.1864H20.8295V23.8759C20.8295 21.6813 21.2656 19.5558 23.9868 19.5558C26.6671 19.5558 26.7026 22.034 26.7026 23.9876V32.1864H31.9091V22.9346C31.9091 18.407 30.9465 14.9573 25.6496 14.9573H25.6478ZM7.09091 15.3455V32.1864H12.3541V15.3455H7.09091Z" fill="white"/>
</svg>
