<svg width="49" height="62" viewBox="0 0 49 62" fill="none" xmlns="http://www.w3.org/2000/svg">
<path d="M24.5638 59.1447C17.1147 52.2704 11.5403 45.9392 7.79676 40.153C3.88177 34.102 2.0293 28.7409 2.0293 24.0345C2.0293 18.058 4.40346 12.3262 8.62949 8.10019C12.8555 3.87416 18.5873 1.5 24.5638 1.5C30.5403 1.5 36.272 3.87416 40.498 8.10019C44.7241 12.3262 47.0982 18.058 47.0982 24.0345C47.0982 28.7409 45.2458 34.102 41.3308 40.153C37.5872 45.9392 32.0128 52.2704 24.5638 59.1447Z" stroke="#6A7BC1" stroke-width="3"/>
<path d="M24.5639 33.4593C22.0643 33.4593 19.6671 32.4663 17.8996 30.6988C16.1321 28.9313 15.1392 26.5341 15.1392 24.0345C15.1392 21.5349 16.1321 19.1377 17.8996 17.3702C19.6671 15.6027 22.0643 14.6097 24.5639 14.6097C27.0635 14.6097 29.4607 15.6027 31.2282 17.3702C32.9957 19.1377 33.9887 21.5349 33.9887 24.0345C33.9887 26.5341 32.9957 28.9313 31.2282 30.6988C29.4607 32.4663 27.0635 33.4593 24.5639 33.4593Z" stroke="#6A7BC1" stroke-width="3"/>
</svg>
