<svg width="197" height="43" viewBox="0 0 197 43" fill="none" xmlns="http://www.w3.org/2000/svg">
<path d="M46.9127 7.74356H50.9606V9.85548H51.207C51.6997 9.08111 52.4037 8.41233 53.2837 7.95475C54.1637 7.46197 55.114 7.21558 56.17 7.21558C57.4019 7.21558 58.4227 7.49717 59.2675 8.06035C60.1122 8.62352 60.7106 9.3275 61.0626 10.1723C61.5554 9.3627 62.2946 8.65872 63.2097 8.09554C64.1249 7.49717 65.2512 7.21558 66.5536 7.21558C67.5392 7.21558 68.3839 7.39157 69.1231 7.70836C69.8623 8.02515 70.4607 8.48273 70.9182 9.04591C71.3758 9.60909 71.763 10.3131 71.9742 11.1226C72.2206 11.9322 72.3262 12.8122 72.3262 13.7273V23.8998H67.9967V14.5017C67.9967 12.3194 67.0816 11.193 65.2864 11.193C64.7233 11.193 64.1953 11.3338 63.7729 11.5802C63.3153 11.8266 62.9633 12.1786 62.6817 12.601C62.4002 13.0234 62.1538 13.5513 61.9778 14.1497C61.8018 14.7481 61.7314 15.3817 61.7314 16.0504V23.8998H57.4019V14.5017C57.4019 12.3194 56.4516 11.193 54.5508 11.193C53.9877 11.193 53.5301 11.3338 53.1077 11.5802C52.6853 11.8266 52.3333 12.1786 52.0517 12.601C51.7701 13.0234 51.559 13.5513 51.383 14.1497C51.2422 14.7481 51.1366 15.3817 51.1366 16.0504V23.8998H46.8071V7.74356H46.9127Z" fill="#0257C1"/>
<path d="M85.7369 7.21558C87.0041 7.21558 88.1304 7.42677 89.1864 7.84915C90.2424 8.27154 91.1223 8.86992 91.8967 9.64429C92.6711 10.4187 93.2342 11.2986 93.6918 12.3546C94.1142 13.4105 94.3254 14.5721 94.3254 15.8041C94.3254 17.0712 94.1142 18.1976 93.6918 19.2535C93.2694 20.3095 92.6711 21.2247 91.8967 21.9638C91.1223 22.7382 90.2424 23.3014 89.1864 23.759C88.1304 24.1813 87.0041 24.3925 85.7369 24.3925C84.4698 24.3925 83.3434 24.1813 82.2874 23.759C81.2315 23.3366 80.3515 22.7382 79.5772 21.9638C78.8028 21.1895 78.2396 20.3095 77.782 19.2535C77.3596 18.1976 77.1484 17.036 77.1484 15.8041C77.1484 14.5369 77.3596 13.4105 77.782 12.3546C78.2044 11.2986 78.8028 10.3835 79.5772 9.64429C80.3515 8.86992 81.2315 8.30674 82.2874 7.84915C83.3082 7.42677 84.4698 7.21558 85.7369 7.21558ZM85.7369 20.4151C86.3001 20.4151 86.8281 20.3095 87.3209 20.0983C87.8488 19.8871 88.3064 19.5703 88.6936 19.1831C89.0808 18.7959 89.3976 18.3032 89.644 17.74C89.8904 17.1768 89.996 16.508 89.996 15.8041C89.996 15.1001 89.8904 14.4313 89.644 13.8681C89.3976 13.305 89.116 12.8122 88.6936 12.425C88.3064 12.0378 87.8488 11.721 87.3209 11.5098C86.7929 11.2986 86.2649 11.193 85.7369 11.193C85.1737 11.193 84.6106 11.2986 84.1178 11.5098C83.625 11.721 83.1674 12.0378 82.7802 12.425C82.393 12.8122 82.0763 13.305 81.8299 13.8681C81.5835 14.4313 81.4779 15.1001 81.4779 15.8041C81.4779 16.508 81.5835 17.1768 81.8299 17.74C82.0763 18.3032 82.3578 18.7959 82.7802 19.1831C83.2026 19.5703 83.625 19.8871 84.1178 20.0983C84.6106 20.3095 85.1385 20.4151 85.7369 20.4151Z" fill="#0257C1"/>
<path d="M96.5077 27.2438C96.6837 27.3494 96.8597 27.4198 97.0356 27.4902C97.2116 27.5254 97.3876 27.5606 97.634 27.5606C98.6196 27.5606 99.1124 26.8918 99.1124 25.5895V7.74371H103.442V25.695C103.442 26.751 103.301 27.6662 103.019 28.4053C102.738 29.1445 102.351 29.7429 101.858 30.2005C101.365 30.6581 100.802 31.0101 100.168 31.2212C99.5348 31.4324 98.866 31.538 98.1268 31.538C97.5636 31.538 97.0708 31.5028 96.6485 31.4324C96.2261 31.362 95.8037 31.2564 95.4165 31.0805L96.5077 27.2438ZM101.259 5.56139C100.872 5.56139 100.52 5.491 100.204 5.3502C99.8515 5.20941 99.57 4.99822 99.3236 4.75182C99.0772 4.50543 98.866 4.22384 98.7252 3.87186C98.5844 3.55507 98.514 3.16788 98.514 2.7807C98.514 2.39351 98.5844 2.00633 98.7252 1.68954C98.866 1.37275 99.0772 1.05596 99.3236 0.80957C99.57 0.563179 99.8867 0.351986 100.204 0.211192C100.556 0.0703969 100.908 0 101.259 0C102.034 0 102.703 0.281589 103.231 0.80957C103.794 1.33755 104.04 2.00633 104.04 2.7807C104.04 3.55507 103.759 4.18864 103.231 4.75182C102.667 5.2798 101.999 5.56139 101.259 5.56139Z" fill="#0257C1"/>
<path d="M116.606 31.538C115.48 31.538 114.459 31.3972 113.544 31.0804C112.664 30.7988 111.889 30.4116 111.221 29.9189C110.552 29.4613 110.024 28.9333 109.566 28.3701C109.144 27.8069 108.792 27.2438 108.616 26.6454L112.734 24.991C113.051 25.8358 113.544 26.5046 114.248 26.9974C114.952 27.455 115.726 27.7013 116.571 27.7013C117.944 27.7013 119 27.2438 119.809 26.3638C120.619 25.4838 121.006 24.2519 121.006 22.7031V21.5768H120.76C120.267 22.2807 119.598 22.8439 118.753 23.2311C117.944 23.6535 116.958 23.8295 115.832 23.8295C114.881 23.8295 113.931 23.6183 113.016 23.2311C112.101 22.8439 111.291 22.2807 110.587 21.5416C109.883 20.8024 109.32 19.9224 108.862 18.9017C108.44 17.8809 108.194 16.7546 108.194 15.4874C108.194 14.2202 108.405 13.0939 108.862 12.0379C109.285 11.0172 109.883 10.1372 110.587 9.39802C111.291 8.65885 112.101 8.09567 113.016 7.70849C113.931 7.3213 114.881 7.11011 115.832 7.11011C116.958 7.11011 117.908 7.3213 118.753 7.70849C119.563 8.13087 120.232 8.65885 120.76 9.36282H121.006V7.60289H125.124V22.5975C125.124 23.9703 124.913 25.167 124.491 26.2582C124.068 27.3494 123.505 28.2645 122.731 29.0389C121.991 29.8133 121.076 30.3764 120.056 30.7988C119.035 31.3268 117.873 31.538 116.606 31.538ZM116.782 19.9928C117.31 19.9928 117.838 19.8872 118.331 19.7112C118.859 19.5 119.316 19.2185 119.704 18.8665C120.091 18.4793 120.408 18.0217 120.654 17.4585C120.9 16.8953 121.006 16.2618 121.006 15.5578C121.006 14.8538 120.9 14.2202 120.654 13.6571C120.408 13.0939 120.091 12.6363 119.704 12.2491C119.316 11.8619 118.859 11.5803 118.331 11.4043C117.803 11.1932 117.275 11.1228 116.782 11.1228C116.289 11.1228 115.726 11.2284 115.233 11.4043C114.741 11.6155 114.283 11.8971 113.896 12.2843C113.509 12.6715 113.192 13.1291 112.945 13.6923C112.699 14.2554 112.593 14.889 112.593 15.593C112.593 16.297 112.699 16.9305 112.945 17.4937C113.192 18.0569 113.509 18.5145 113.896 18.9017C114.283 19.2889 114.741 19.5704 115.233 19.7464C115.726 19.8872 116.254 19.9928 116.782 19.9928Z" fill="#0257C1"/>
<path d="M146.173 19.9927C145.434 21.2951 144.413 22.3862 143.146 23.1958C141.879 24.0054 140.33 24.4277 138.5 24.4277C137.268 24.4277 136.141 24.2165 135.086 23.7942C134.03 23.3718 133.15 22.7734 132.375 21.999C131.601 21.2247 131.002 20.3095 130.58 19.2887C130.158 18.2328 129.947 17.1064 129.947 15.8393C129.947 14.6777 130.158 13.5865 130.58 12.5306C131.002 11.4746 131.566 10.5595 132.34 9.78508C133.079 9.01071 133.959 8.37713 134.98 7.91955C136.001 7.46197 137.127 7.21558 138.359 7.21558C139.661 7.21558 140.823 7.42677 141.808 7.84915C142.829 8.27154 143.674 8.86992 144.343 9.64429C145.012 10.4187 145.54 11.2986 145.892 12.3194C146.244 13.3402 146.42 14.4665 146.42 15.6633C146.42 15.8041 146.42 15.9449 146.42 16.0505C146.384 16.1912 146.384 16.2968 146.384 16.4024C146.349 16.508 146.349 16.6488 146.349 16.7544H134.206C134.276 17.4232 134.487 17.9864 134.734 18.444C135.015 18.9015 135.332 19.3239 135.754 19.6407C136.177 19.9575 136.599 20.2039 137.092 20.3447C137.585 20.4855 138.077 20.5559 138.57 20.5559C139.556 20.5559 140.365 20.3447 141.034 19.8871C141.668 19.4295 142.196 18.8663 142.583 18.1976L146.173 19.9927ZM142.231 13.7273C142.196 13.4457 142.125 13.129 141.949 12.777C141.773 12.425 141.527 12.1082 141.21 11.7914C140.893 11.4746 140.506 11.2282 140.013 11.017C139.556 10.8058 138.957 10.7354 138.324 10.7354C137.409 10.7354 136.599 10.9818 135.895 11.5098C135.191 12.0378 134.698 12.777 134.417 13.7273H142.231Z" fill="#0257C1"/>
<path d="M155.29 9.85548H155.536C156.029 9.04591 156.733 8.41233 157.578 7.91955C158.422 7.46197 159.408 7.21558 160.499 7.21558C161.52 7.21558 162.4 7.39157 163.174 7.70836C163.948 8.02515 164.582 8.51793 165.075 9.11631C165.568 9.71468 165.955 10.4539 166.201 11.2986C166.448 12.1434 166.588 13.0938 166.588 14.1145V23.8998H162.259V14.6073C162.259 13.4457 162.013 12.5658 161.485 12.0378C160.957 11.4746 160.217 11.193 159.232 11.193C158.633 11.193 158.105 11.3338 157.683 11.5802C157.226 11.8266 156.838 12.1786 156.522 12.601C156.205 13.0234 155.958 13.5513 155.782 14.1145C155.606 14.7129 155.536 15.3113 155.536 15.9801V23.8998H151.207V7.74356H155.254V9.85548H155.29Z" fill="#0257C1"/>
<path d="M173.558 5.56139C173.171 5.56139 172.819 5.491 172.502 5.3502C172.15 5.20941 171.868 4.99822 171.622 4.75182C171.375 4.50543 171.164 4.22384 171.023 3.87186C170.883 3.55507 170.812 3.16788 170.812 2.7807C170.812 2.39351 170.883 2.00633 171.023 1.68954C171.164 1.37275 171.375 1.05596 171.622 0.80957C171.868 0.563179 172.185 0.351986 172.502 0.211192C172.854 0.0703969 173.206 0 173.558 0C174.332 0 175.001 0.281589 175.529 0.80957C176.092 1.33755 176.338 2.00633 176.338 2.7807C176.338 3.55507 176.057 4.18865 175.529 4.75182C175.001 5.27981 174.332 5.56139 173.558 5.56139ZM171.411 23.8647V7.74371H175.74V23.8999H171.411V23.8647Z" fill="#0257C1"/>
<path d="M196.754 19.9927C196.015 21.2951 194.994 22.3862 193.727 23.1958C192.459 24.0054 190.911 24.4277 189.08 24.4277C187.848 24.4277 186.722 24.2165 185.666 23.7942C184.61 23.3718 183.73 22.7734 182.956 21.999C182.181 21.2247 181.583 20.3095 181.161 19.2887C180.738 18.2328 180.527 17.1064 180.527 15.8393C180.527 14.6777 180.738 13.5865 181.161 12.5306C181.583 11.4746 182.146 10.5595 182.921 9.78508C183.66 9.01071 184.54 8.37713 185.561 7.91955C186.581 7.46197 187.708 7.21558 188.94 7.21558C190.242 7.21558 191.403 7.42677 192.389 7.84915C193.41 8.27154 194.255 8.86992 194.923 9.64429C195.592 10.4187 196.12 11.2986 196.472 12.3194C196.824 13.3402 197 14.4665 197 15.6633C197 15.8041 197 15.9449 197 16.0505C196.965 16.1912 196.965 16.2968 196.965 16.4024C196.93 16.508 196.93 16.6488 196.93 16.7544H184.786C184.857 17.4232 185.068 17.9864 185.314 18.444C185.596 18.9015 185.913 19.3239 186.335 19.6407C186.757 19.9575 187.18 20.2039 187.672 20.3447C188.165 20.4855 188.658 20.5559 189.151 20.5559C190.136 20.5559 190.946 20.3447 191.615 19.8871C192.248 19.4295 192.776 18.8663 193.163 18.1976L196.754 19.9927ZM192.847 13.7273C192.811 13.4457 192.741 13.129 192.565 12.777C192.389 12.425 192.143 12.1082 191.826 11.7914C191.509 11.4746 191.122 11.2282 190.629 11.017C190.172 10.8058 189.573 10.7354 188.94 10.7354C188.024 10.7354 187.215 10.9818 186.511 11.5098C185.807 12.0378 185.314 12.777 185.033 13.7273H192.847Z" fill="#0257C1"/>
<path d="M2.98474 5.19153L0.0229492 8.15332L18.8141 26.9445L21.7759 23.9827L2.98474 5.19153Z" fill="#0257C1"/>
<path d="M3.0155 21.0443L0.0537109 24.0061L10.9053 34.8577L13.8671 31.8959L3.0155 21.0443Z" fill="#0257C1"/>
<path d="M2.96137 36.8129L0 39.7751L2.96221 42.7365L5.92358 39.7743L2.96137 36.8129Z" fill="#0257C1"/>
<path d="M34.6234 5.19492L23.5229 16.2954L26.4847 19.2572L37.5852 8.15671L34.6234 5.19492Z" fill="#0257C1"/>
<path d="M34.5933 21.0195L23.7417 31.8711L26.7035 34.8329L37.5551 23.9813L34.5933 21.0195Z" fill="#0257C1"/>
<path d="M34.5997 36.8014L31.6379 39.7632L34.5997 42.725L37.5615 39.7632L34.5997 36.8014Z" fill="#0257C1"/>
<path d="M56.5573 34.8115L54.6917 42.6256H53.6006L51.8407 36.1139L50.0807 42.6256H48.9896L47.124 34.8115H48.0744L49.5879 41.4641L51.3479 34.8115H52.3686L54.1638 41.4289L55.6421 34.8115H56.5573Z" fill="#0257C1"/>
<path d="M61.2388 34.8115H62.1891V42.6256H61.2388V34.8115Z" fill="#0257C1"/>
<path d="M67.0464 40.8656L67.9616 40.5136C68.1727 41.3936 68.8767 41.8864 69.8623 41.8864C70.8478 41.8864 71.4814 41.4288 71.4814 40.6544C71.4814 38.5425 67.3984 39.4225 67.3984 36.7122C67.3984 35.5154 68.3135 34.6707 69.8623 34.6707C71.1646 34.6707 72.0446 35.3042 72.3262 36.2898L71.411 36.6418C71.1646 35.8674 70.6367 35.4802 69.8271 35.4802C68.8767 35.4802 68.3487 35.9378 68.3487 36.5714C68.3487 38.5425 72.4318 37.6625 72.4318 40.584C72.4318 41.8512 71.3758 42.696 69.7567 42.696C68.3839 42.7312 67.3984 42.0624 67.0464 40.8656Z" fill="#0257C1"/>
<path d="M83.3436 34.8115V42.6256H82.358V39.0002H78.3805V42.6256H77.4302V34.8115H78.3805V38.1554H82.358V34.8115H83.3436Z" fill="#0257C1"/>
<path d="M93.7269 41.7809V42.6256H88.7639V34.8115H93.6565V35.6563H89.7143V38.1554H93.2693V39.0002H89.7143V41.7809H93.7269Z" fill="#0257C1"/>
<path d="M98.0564 40.8656L98.9716 40.5136C99.1828 41.3936 99.8867 41.8864 100.872 41.8864C101.858 41.8864 102.491 41.4288 102.491 40.6544C102.491 38.5425 98.4084 39.4225 98.4084 36.7122C98.4084 35.5154 99.3235 34.6707 100.872 34.6707C102.175 34.6707 103.055 35.3042 103.336 36.2898L102.421 36.6418C102.175 35.8674 101.647 35.4802 100.837 35.4802C99.8867 35.4802 99.3587 35.9378 99.3587 36.5714C99.3587 38.5425 103.442 37.6625 103.442 40.584C103.442 41.8512 102.386 42.696 100.767 42.696C99.3939 42.7312 98.3732 42.0624 98.0564 40.8656Z" fill="#0257C1"/>
<path d="M115.515 35.6563V38.1906H119.035V39.0354H115.515V42.6256H114.565V34.8115H119.422V35.6563H115.515Z" fill="#0257C1"/>
<path d="M130.017 34.8115V39.7393C130.017 41.3937 129.031 42.7664 127.06 42.7664C125.089 42.7664 124.104 41.3937 124.104 39.7393V34.8115H125.089V39.7393C125.089 40.9361 125.758 41.8513 127.06 41.8513C128.363 41.8513 129.031 40.9009 129.031 39.7393V34.8115H130.017Z" fill="#0257C1"/>
<path d="M140.225 41.7457V42.6256H135.332V34.8115H136.282V41.7809H140.225V41.7457Z" fill="#0257C1"/>
<path d="M145.856 35.6563V38.1906H149.376V39.0354H145.856V42.6256H144.906V34.8115H149.763V35.6563H145.856Z" fill="#0257C1"/>
<path d="M154.515 34.8115H155.466V42.6256H154.515V34.8115Z" fill="#0257C1"/>
<path d="M165.814 41.7457V42.6256H160.921V34.8115H161.872V41.7809H165.814V41.7457Z" fill="#0257C1"/>
<path d="M175.353 41.7457V42.6256H170.46V34.8115H171.411V41.7809H175.353V41.7457Z" fill="#0257C1"/>
<path d="M184.962 41.7809V42.6256H179.999V34.8115H184.892V35.6563H180.949V38.1554H184.504V39.0002H180.949V41.7809H184.962Z" fill="#0257C1"/>
<path d="M196.542 38.7186C196.542 41.0769 194.923 42.6256 192.706 42.6256H189.89V34.8115H192.706C194.923 34.8115 196.542 36.3251 196.542 38.7186ZM195.557 38.7186C195.557 36.8531 194.325 35.6563 192.671 35.6563H190.84V41.7809H192.671C194.36 41.7809 195.557 40.5841 195.557 38.7186Z" fill="#0257C1"/>
</svg>
