<svg width="351" height="77" viewBox="0 0 351 77" fill="none" xmlns="http://www.w3.org/2000/svg">
<path d="M83.751 14.0478H90.9494V17.8035H91.3876C92.2639 16.4264 93.5158 15.2371 95.0806 14.4234C96.6455 13.547 98.3356 13.1089 100.213 13.1089C102.404 13.1089 104.219 13.6096 105.722 14.6112C107.224 15.6127 108.288 16.8646 108.914 18.3668C109.79 16.9272 111.105 15.6753 112.732 14.6738C114.36 13.6096 116.363 13.1089 118.679 13.1089C120.431 13.1089 121.934 13.4219 123.248 13.9852C124.563 14.5486 125.627 15.3623 126.441 16.3638C127.254 17.3653 127.943 18.6172 128.318 20.0569C128.757 21.4966 128.944 23.0614 128.944 24.6889V42.7787H121.245V26.066C121.245 22.1851 119.618 20.1821 116.425 20.1821C115.424 20.1821 114.485 20.4325 113.734 20.8706C112.92 21.3088 112.294 21.9347 111.793 22.6859C111.293 23.437 110.854 24.3759 110.541 25.44C110.229 26.5041 110.103 27.6308 110.103 28.8201V42.7787H102.404V26.066C102.404 22.1851 100.714 20.1821 97.334 20.1821C96.3325 20.1821 95.5188 20.4325 94.7677 20.8706C94.0165 21.3088 93.3906 21.9347 92.8898 22.6859C92.3891 23.437 92.0135 24.3759 91.7005 25.44C91.4501 26.5041 91.2624 27.6308 91.2624 28.8201V42.7787H83.5632V14.0478H83.751Z" fill="white"/>
<path d="M152.793 13.1089C155.046 13.1089 157.049 13.4845 158.927 14.2356C160.805 14.9867 162.37 16.0508 163.747 17.4279C165.124 18.805 166.125 20.3699 166.939 22.2477C167.69 24.1255 168.066 26.1912 168.066 28.382C168.066 30.6354 167.69 32.6384 166.939 34.5162C166.188 36.3941 165.124 38.0215 163.747 39.336C162.37 40.7131 160.805 41.7146 158.927 42.5283C157.049 43.2795 155.046 43.655 152.793 43.655C150.539 43.655 148.536 43.2795 146.659 42.5283C144.781 41.7772 143.216 40.7131 141.839 39.336C140.462 37.9589 139.46 36.3941 138.646 34.5162C137.895 32.6384 137.52 30.5728 137.52 28.382C137.52 26.1286 137.895 24.1255 138.646 22.2477C139.398 20.3699 140.462 18.7424 141.839 17.4279C143.216 16.0508 144.781 15.0493 146.659 14.2356C148.474 13.4845 150.539 13.1089 152.793 13.1089ZM152.793 36.5818C153.794 36.5818 154.733 36.3941 155.61 36.0185C156.549 35.6429 157.362 35.0796 158.051 34.391C158.739 33.7025 159.303 32.8262 159.741 31.8247C160.179 30.8231 160.367 29.6339 160.367 28.382C160.367 27.1301 160.179 25.9408 159.741 24.9393C159.303 23.9377 158.802 23.0614 158.051 22.3729C157.362 21.6843 156.549 21.121 155.61 20.7454C154.671 20.3699 153.732 20.1821 152.793 20.1821C151.791 20.1821 150.79 20.3699 149.914 20.7454C149.037 21.121 148.223 21.6843 147.535 22.3729C146.846 23.0614 146.283 23.9377 145.845 24.9393C145.407 25.9408 145.219 27.1301 145.219 28.382C145.219 29.6339 145.407 30.8231 145.845 31.8247C146.283 32.8262 146.784 33.7025 147.535 34.391C148.286 35.0796 149.037 35.6429 149.914 36.0185C150.79 36.3941 151.729 36.5818 152.793 36.5818Z" fill="white"/>
<path d="M171.947 48.7255C172.26 48.9133 172.573 49.0385 172.886 49.1637C173.199 49.2263 173.512 49.2889 173.95 49.2889C175.702 49.2889 176.579 48.0996 176.579 45.7836V14.0481H184.278V45.9714C184.278 47.8492 184.028 49.4767 183.527 50.7912C183.026 52.1056 182.337 53.1698 181.461 53.9835C180.585 54.7972 179.583 55.4232 178.457 55.7987C177.33 56.1743 176.141 56.3621 174.826 56.3621C173.825 56.3621 172.948 56.2995 172.197 56.1743C171.446 56.0491 170.695 55.8613 170.006 55.5483L171.947 48.7255ZM180.397 10.1673C179.709 10.1673 179.083 10.0421 178.519 9.79172C177.893 9.54134 177.393 9.16577 176.954 8.72761C176.516 8.28945 176.141 7.78869 175.89 7.16275C175.64 6.59939 175.515 5.91086 175.515 5.22232C175.515 4.53377 175.64 3.84523 175.89 3.28188C176.141 2.71853 176.516 2.15518 176.954 1.71702C177.393 1.27886 177.956 0.903288 178.519 0.65291C179.145 0.402532 179.771 0.277344 180.397 0.277344C181.774 0.277344 182.963 0.7781 183.902 1.71702C184.904 2.65594 185.342 3.84523 185.342 5.22232C185.342 6.5994 184.841 7.7261 183.902 8.72761C182.901 9.66653 181.712 10.1673 180.397 10.1673Z" fill="white"/>
<path d="M207.688 56.362C205.685 56.362 203.87 56.1116 202.242 55.5483C200.678 55.0475 199.3 54.359 198.111 53.4827C196.922 52.6689 195.983 51.73 195.169 50.7285C194.418 49.727 193.792 48.7255 193.479 47.6614L200.803 44.7194C201.366 46.2217 202.242 47.411 203.494 48.2873C204.746 49.101 206.123 49.5392 207.626 49.5392C210.067 49.5392 211.945 48.7255 213.384 47.1606C214.824 45.5958 215.512 43.4049 215.512 40.6508V38.6478H215.074C214.198 39.8997 213.009 40.9012 211.506 41.5897C210.067 42.3408 208.314 42.6538 206.311 42.6538C204.621 42.6538 202.931 42.2782 201.303 41.5897C199.676 40.9012 198.236 39.8996 196.984 38.5852C195.733 37.2707 194.731 35.7058 193.917 33.8906C193.166 32.0753 192.728 30.0723 192.728 27.8189C192.728 25.5655 193.104 23.5625 193.917 21.6846C194.668 19.8694 195.733 18.3045 196.984 16.99C198.236 15.6755 199.676 14.674 201.303 13.9855C202.931 13.297 204.621 12.9214 206.311 12.9214C208.314 12.9214 210.004 13.297 211.506 13.9855C212.946 14.7366 214.135 15.6755 215.074 16.9274H215.512V13.7977H222.836V40.463C222.836 42.9042 222.46 45.0324 221.709 46.9728C220.958 48.9133 219.957 50.5407 218.58 51.9178C217.265 53.2949 215.638 54.2964 213.822 55.0475C212.007 55.9865 209.942 56.362 207.688 56.362ZM208.001 35.831C208.94 35.831 209.879 35.6432 210.755 35.3302C211.694 34.9547 212.508 34.4539 213.196 33.828C213.885 33.1394 214.448 32.3257 214.886 31.3242C215.325 30.3227 215.512 29.196 215.512 27.9441C215.512 26.6922 215.325 25.5655 214.886 24.564C214.448 23.5625 213.885 22.7487 213.196 22.0602C212.508 21.3717 211.694 20.8709 210.755 20.5579C209.816 20.1824 208.877 20.0572 208.001 20.0572C207.125 20.0572 206.123 20.245 205.247 20.5579C204.371 20.9335 203.557 21.4342 202.868 22.1228C202.18 22.8113 201.616 23.6251 201.178 24.6266C200.74 25.6281 200.552 26.7548 200.552 28.0067C200.552 29.2586 200.74 30.3853 201.178 31.3868C201.616 32.3883 202.18 33.202 202.868 33.8906C203.557 34.5791 204.371 35.0799 205.247 35.3928C206.123 35.6432 207.062 35.831 208.001 35.831Z" fill="white"/>
<path d="M260.268 35.8307C258.953 38.1467 257.138 40.0871 254.885 41.5268C252.631 42.9665 249.877 43.7176 246.622 43.7176C244.432 43.7176 242.428 43.3421 240.551 42.5909C238.673 41.8398 237.108 40.7757 235.731 39.3986C234.354 38.0215 233.29 36.3941 232.539 34.5788C231.787 32.701 231.412 30.698 231.412 28.4446C231.412 26.3789 231.787 24.4385 232.539 22.5607C233.29 20.6828 234.291 19.0554 235.668 17.6783C236.983 16.3012 238.548 15.1745 240.363 14.3608C242.178 13.547 244.181 13.1089 246.372 13.1089C248.688 13.1089 250.754 13.4845 252.506 14.2356C254.321 14.9867 255.824 16.0508 257.013 17.4279C258.202 18.805 259.141 20.3699 259.767 22.1851C260.393 24.0003 260.706 26.0034 260.706 28.1316C260.706 28.382 260.706 28.6323 260.706 28.8201C260.644 29.0705 260.644 29.2583 260.644 29.4461C260.581 29.6339 260.581 29.8842 260.581 30.072H238.986C239.111 31.2613 239.487 32.2628 239.925 33.0766C240.425 33.8903 240.989 34.6414 241.74 35.2048C242.491 35.7681 243.242 36.2063 244.119 36.4567C244.995 36.707 245.871 36.8322 246.748 36.8322C248.5 36.8322 249.94 36.4567 251.129 35.6429C252.256 34.8292 253.195 33.8277 253.883 32.6384L260.268 35.8307ZM253.257 24.6889C253.195 24.1881 253.07 23.6248 252.757 22.9988C252.444 22.3729 252.005 21.8095 251.442 21.2462C250.879 20.6828 250.19 20.2447 249.314 19.8691C248.5 19.4935 247.436 19.3683 246.309 19.3683C244.682 19.3683 243.242 19.8065 241.99 20.7454C240.738 21.6843 239.862 22.9988 239.361 24.6889H253.257Z" fill="white"/>
<path d="M276.48 17.8035H276.918C277.794 16.3638 279.046 15.2371 280.549 14.3608C282.051 13.547 283.804 13.1089 285.744 13.1089C287.559 13.1089 289.124 13.4219 290.501 13.9852C291.878 14.5486 293.005 15.4249 293.881 16.489C294.758 17.5531 295.446 18.8676 295.884 20.3699C296.322 21.8721 296.573 23.5622 296.573 25.3774V42.7787H288.874V26.2537C288.874 24.1881 288.436 22.6233 287.497 21.6843C286.558 20.6828 285.243 20.1821 283.491 20.1821C282.426 20.1821 281.488 20.4325 280.736 20.8706C279.923 21.3088 279.234 21.9347 278.671 22.6859C278.107 23.437 277.669 24.3759 277.356 25.3774C277.043 26.4415 276.918 27.5056 276.918 28.6949V42.7787H269.219V14.0478H276.417V17.8035H276.48Z" fill="white"/>
<path d="M308.967 10.1673C308.278 10.1673 307.652 10.0421 307.089 9.79172C306.463 9.54134 305.962 9.16577 305.524 8.72761C305.086 8.28945 304.71 7.78869 304.46 7.16275C304.209 6.5994 304.084 5.91086 304.084 5.22232C304.084 4.53378 304.209 3.84523 304.46 3.28188C304.71 2.71853 305.086 2.15518 305.524 1.71702C305.962 1.27886 306.525 0.903288 307.089 0.65291C307.715 0.402532 308.341 0.277344 308.967 0.277344C310.344 0.277344 311.533 0.7781 312.472 1.71702C313.473 2.65594 313.912 3.84524 313.912 5.22232C313.912 6.5994 313.411 7.7261 312.472 8.72761C311.533 9.66653 310.344 10.1673 308.967 10.1673ZM305.148 42.7165V14.0481H312.847V42.7791H305.148V42.7165Z" fill="white"/>
<path d="M350.216 35.8307C348.902 38.1467 347.086 40.0871 344.833 41.5268C342.58 42.9665 339.825 43.7176 336.571 43.7176C334.38 43.7176 332.377 43.3421 330.499 42.5909C328.621 41.8398 327.056 40.7757 325.679 39.3986C324.302 38.0215 323.238 36.3941 322.487 34.5788C321.736 32.701 321.36 30.698 321.36 28.4446C321.36 26.3789 321.736 24.4385 322.487 22.5607C323.238 20.6828 324.239 19.0554 325.617 17.6783C326.931 16.3012 328.496 15.1745 330.311 14.3608C332.126 13.547 334.129 13.1089 336.32 13.1089C338.636 13.1089 340.702 13.4845 342.454 14.2356C344.27 14.9867 345.772 16.0508 346.961 17.4279C348.151 18.805 349.089 20.3699 349.715 22.1851C350.341 24.0003 350.654 26.0034 350.654 28.1316C350.654 28.382 350.654 28.6323 350.654 28.8201C350.592 29.0705 350.592 29.2583 350.592 29.4461C350.529 29.6339 350.529 29.8842 350.529 30.072H328.934C329.059 31.2613 329.435 32.2628 329.873 33.0766C330.374 33.8903 330.937 34.6414 331.688 35.2048C332.439 35.7681 333.19 36.2063 334.067 36.4567C334.943 36.707 335.819 36.8322 336.696 36.8322C338.448 36.8322 339.888 36.4567 341.077 35.6429C342.204 34.8292 343.143 33.8277 343.832 32.6384L350.216 35.8307ZM343.268 24.6889C343.206 24.1881 343.08 23.6248 342.767 22.9988C342.454 22.3729 342.016 21.8095 341.453 21.2462C340.89 20.6828 340.201 20.2447 339.325 19.8691C338.511 19.4935 337.447 19.3683 336.32 19.3683C334.693 19.3683 333.253 19.8065 332.001 20.7454C330.749 21.6843 329.873 22.9988 329.372 24.6889H343.268Z" fill="white"/>
<path d="M5.63298 9.5096L0.365967 14.7766L33.7827 48.1934L39.0497 42.9264L5.63298 9.5096Z" fill="white"/>
<path d="M5.68791 37.701L0.420898 42.968L19.7185 62.2656L24.9855 56.9986L5.68791 37.701Z" fill="white"/>
<path d="M5.59147 65.7427L0.325195 71.0105L5.59295 76.2768L10.8592 71.009L5.59147 65.7427Z" fill="white"/>
<path d="M61.8965 9.51538L42.1562 29.2556L47.4233 34.5226L67.1635 14.7824L61.8965 9.51538Z" fill="white"/>
<path d="M61.8433 37.6567L42.5457 56.9543L47.8127 62.2214L67.1103 42.9237L61.8433 37.6567Z" fill="white"/>
<path d="M61.8547 65.7222L56.5876 70.9893L61.8547 76.2563L67.1217 70.9893L61.8547 65.7222Z" fill="white"/>
<path d="M100.902 62.1836L97.5848 76.0796H95.6444L92.5146 64.4996L89.3849 76.0796H87.4445L84.127 62.1836H85.817L88.5086 74.014L91.6383 62.1836H93.4535L96.6459 73.9514L99.2748 62.1836H100.902Z" fill="white"/>
<path d="M109.228 62.1836H110.918V76.0796H109.228V62.1836Z" fill="white"/>
<path d="M119.555 72.9495L121.183 72.3236C121.558 73.8884 122.81 74.7647 124.563 74.7647C126.315 74.7647 127.442 73.951 127.442 72.5739C127.442 68.8183 120.181 70.3831 120.181 65.5633C120.181 63.4351 121.809 61.9329 124.563 61.9329C126.879 61.9329 128.444 63.0596 128.944 64.8122L127.317 65.4382C126.879 64.0611 125.94 63.3725 124.5 63.3725C122.81 63.3725 121.871 64.1863 121.871 65.313C121.871 68.8183 129.132 67.2534 129.132 72.4488C129.132 74.7022 127.254 76.2044 124.375 76.2044C121.934 76.267 120.181 75.0777 119.555 72.9495Z" fill="white"/>
<path d="M148.537 62.1836V76.0796H146.784V69.6324H139.711V76.0796H138.021V62.1836H139.711V68.1301H146.784V62.1836H148.537Z" fill="white"/>
<path d="M167.002 74.5773V76.0796H158.176V62.1836H166.877V63.6859H159.866V68.1301H166.188V69.6324H159.866V74.5773H167.002Z" fill="white"/>
<path d="M174.701 72.9495L176.328 72.3236C176.704 73.8884 177.956 74.7647 179.708 74.7647C181.461 74.7647 182.588 73.951 182.588 72.5739C182.588 68.8183 175.327 70.3831 175.327 65.5633C175.327 63.4351 176.954 61.9329 179.708 61.9329C182.024 61.9329 183.589 63.0596 184.09 64.8122L182.463 65.4382C182.024 64.0611 181.086 63.3725 179.646 63.3725C177.956 63.3725 177.017 64.1863 177.017 65.313C177.017 68.8183 184.278 67.2534 184.278 72.4488C184.278 74.7022 182.4 76.2044 179.521 76.2044C177.08 76.267 175.264 75.0777 174.701 72.9495Z" fill="white"/>
<path d="M205.748 63.6859V68.1927H212.008V69.6949H205.748V76.0796H204.058V62.1836H212.696V63.6859H205.748Z" fill="white"/>
<path d="M231.537 62.1836V70.9468C231.537 73.8888 229.784 76.33 226.279 76.33C222.774 76.33 221.021 73.8888 221.021 70.9468V62.1836H222.774V70.9468C222.774 73.075 223.963 74.7025 226.279 74.7025C228.595 74.7025 229.784 73.0125 229.784 70.9468V62.1836H231.537Z" fill="white"/>
<path d="M249.69 74.5147V76.0796H240.989V62.1836H242.679V74.5773H249.69V74.5147Z" fill="white"/>
<path d="M259.705 63.6859V68.1927H265.964V69.6949H259.705V76.0796H258.015V62.1836H266.653V63.6859H259.705Z" fill="white"/>
<path d="M275.103 62.1836H276.793V76.0796H275.103V62.1836Z" fill="white"/>
<path d="M295.196 74.5147V76.0796H286.495V62.1836H288.185V74.5773H295.196V74.5147Z" fill="white"/>
<path d="M312.159 74.5147V76.0796H303.458V62.1836H305.148V74.5773H312.159V74.5147Z" fill="white"/>
<path d="M329.247 74.5773V76.0796H320.421V62.1836H329.122V63.6859H322.111V68.1301H328.433V69.6324H322.111V74.5773H329.247Z" fill="white"/>
<path d="M349.841 69.1316C349.841 73.3254 346.962 76.0796 343.018 76.0796H338.01V62.1836H343.018C346.962 62.1836 349.841 64.8752 349.841 69.1316ZM348.088 69.1316C348.088 65.8141 345.897 63.6859 342.955 63.6859H339.701V74.5773H342.955C345.96 74.5773 348.088 72.4491 348.088 69.1316Z" fill="white"/>
</svg>
