<svg width="86" height="94" viewBox="0 0 86 94" fill="none" xmlns="http://www.w3.org/2000/svg">
<path d="M44.8035 2.02136H8.91661C5.33014 2.02136 2.42273 4.92877 2.42273 8.51524V85.2375C2.42273 88.824 5.33014 91.7314 8.91661 91.7314H44.8035C48.3899 91.7314 51.2974 88.824 51.2974 85.2375V8.51524C51.2974 4.92877 48.3899 2.02136 44.8035 2.02136Z" stroke="#6A7BC1" stroke-width="3" stroke-miterlimit="10"/>
<path d="M16.3883 10.3016H9.57012C9.03142 10.3016 8.59473 10.7383 8.59473 11.277V18.3385C8.59473 18.8772 9.03142 19.3139 9.57012 19.3139H16.3883C16.927 19.3139 17.3637 18.8772 17.3637 18.3385V11.277C17.3637 10.7383 16.927 10.3016 16.3883 10.3016Z" stroke="#6A7BC1" stroke-width="3" stroke-linecap="round" stroke-linejoin="round"/>
<path d="M30.4536 10.3015H23.6354C23.0967 10.3015 22.66 10.7382 22.66 11.2769V18.3384C22.66 18.8771 23.0967 19.3138 23.6354 19.3138H30.4536C30.9923 19.3138 31.429 18.8771 31.429 18.3384V11.2769C31.429 10.7382 30.9923 10.3015 30.4536 10.3015Z" stroke="#6A7BC1" stroke-width="3" stroke-linecap="round" stroke-linejoin="round"/>
<path d="M44.5171 10.3015H37.6989C37.1602 10.3015 36.7235 10.7382 36.7235 11.2769V18.3384C36.7235 18.8771 37.1602 19.3138 37.6989 19.3138H44.5171C45.0558 19.3138 45.4925 18.8771 45.4925 18.3384V11.2769C45.4925 10.7382 45.0558 10.3015 44.5171 10.3015Z" stroke="#6A7BC1" stroke-width="3" stroke-linecap="round" stroke-linejoin="round"/>
<path d="M16.3883 25.829H9.57012C9.03142 25.829 8.59473 26.2657 8.59473 26.8044V33.8658C8.59473 34.4045 9.03142 34.8412 9.57012 34.8412H16.3883C16.927 34.8412 17.3637 34.4045 17.3637 33.8658V26.8044C17.3637 26.2657 16.927 25.829 16.3883 25.829Z" stroke="#6A7BC1" stroke-width="3" stroke-linecap="round" stroke-linejoin="round"/>
<path d="M30.4536 25.829H23.6354C23.0967 25.829 22.66 26.2657 22.66 26.8044V33.8658C22.66 34.4045 23.0967 34.8412 23.6354 34.8412H30.4536C30.9923 34.8412 31.429 34.4045 31.429 33.8658V26.8044C31.429 26.2657 30.9923 25.829 30.4536 25.829Z" stroke="#6A7BC1" stroke-width="3" stroke-linecap="round" stroke-linejoin="round"/>
<path d="M44.5171 25.829H37.6989C37.1602 25.829 36.7235 26.2657 36.7235 26.8044V33.8658C36.7235 34.4045 37.1602 34.8412 37.6989 34.8412H44.5171C45.0558 34.8412 45.4925 34.4045 45.4925 33.8658V26.8044C45.4925 26.2657 45.0558 25.829 44.5171 25.829Z" stroke="#6A7BC1" stroke-width="3" stroke-linecap="round" stroke-linejoin="round"/>
<path d="M52.0482 15.0402H55.6087C55.6929 15.0402 55.7762 15.0568 55.8539 15.089C55.9316 15.1213 56.0021 15.1686 56.0615 15.2282C56.1209 15.2878 56.1679 15.3585 56.1999 15.4364C56.2319 15.5142 56.2482 15.5976 56.2479 15.6817V22.0849C56.2476 22.2262 56.2943 22.3636 56.3806 22.4754C56.467 22.5872 56.5881 22.6672 56.7248 22.7026C57.9769 23.0341 61.4516 24.112 64.063 26.411C64.1849 26.5179 64.343 26.5744 64.505 26.569C64.6671 26.5637 64.8211 26.497 64.9358 26.3824L70.2468 21.0714C70.3072 21.0106 70.3792 20.9626 70.4585 20.9303C70.5378 20.8979 70.6228 20.8818 70.7084 20.8829C70.7941 20.884 70.8786 20.9023 70.957 20.9367C71.0355 20.9712 71.1062 21.021 71.165 21.0833L77.9474 28.2092C78.0638 28.3303 78.1276 28.4925 78.1249 28.6605C78.1222 28.8284 78.0533 28.9885 77.9331 29.1059L72.8987 34.0735C72.8365 34.1329 72.7871 34.2043 72.7532 34.2835C72.7194 34.3626 72.702 34.4477 72.702 34.5337C72.702 34.6198 72.7194 34.7049 72.7532 34.784C72.7871 34.8631 72.8365 34.9346 72.8987 34.994C74.8984 36.9177 76.224 39.4351 76.6787 42.1723C76.7046 42.3203 76.782 42.4544 76.8972 42.5509C77.0124 42.6473 77.158 42.6999 77.3083 42.6994H83.2417C83.4117 42.7 83.5745 42.7678 83.6947 42.888C83.8148 43.0081 83.8826 43.1709 83.8832 43.3409V53.1425C83.8826 53.3123 83.8148 53.4748 83.6945 53.5946C83.5743 53.7144 83.4115 53.7817 83.2417 53.7817H77.2034C77.0577 53.7815 76.9164 53.831 76.8028 53.9221C76.6892 54.0132 76.61 54.1403 76.5785 54.2825C75.9586 56.9967 74.7828 59.5529 73.1253 61.7899C73.0334 61.9126 72.9888 62.0643 72.9998 62.2172C73.0107 62.3701 73.0765 62.5139 73.1849 62.6222L78.0571 67.4944C78.1771 67.6147 78.2445 67.7776 78.2445 67.9475C78.2445 68.1174 78.1771 68.2804 78.0571 68.4006L71.184 75.2737C71.0638 75.3937 70.9008 75.4611 70.7309 75.4611C70.561 75.4611 70.3981 75.3937 70.2778 75.2737L65.4128 70.4063C65.3032 70.2972 65.158 70.2313 65.0037 70.2208C64.8495 70.2103 64.6967 70.2558 64.5733 70.3491C63.5288 71.1456 60.7051 73.094 57.2757 73.819C57.1331 73.85 57.0054 73.9289 56.9139 74.0426C56.8224 74.1563 56.7725 74.2978 56.7725 74.4438V80.7946C56.7725 80.9643 56.7053 81.1271 56.5855 81.2474C56.4657 81.3676 56.3031 81.4355 56.1334 81.4361H51.948C51.8637 81.4364 51.7801 81.42 51.7022 81.3879C51.6242 81.3558 51.5533 81.3086 51.4937 81.2489C51.4341 81.1893 51.3868 81.1184 51.3547 81.0405C51.3226 80.9625 51.3062 80.8789 51.3065 80.7946C51.3065 74.3961 51.3971 22.0706 51.4067 15.6888C51.4054 15.6039 51.4211 15.5196 51.4528 15.4408C51.4845 15.362 51.5316 15.2903 51.5913 15.2299C51.651 15.1695 51.7222 15.1216 51.8007 15.089C51.8791 15.0564 51.9633 15.0398 52.0482 15.0402V15.0402Z" stroke="#6A7BC1" stroke-width="3" stroke-linecap="round" stroke-linejoin="round"/>
<path d="M51.3618 32.2371C55.6059 32.239 59.6753 33.9267 62.675 36.929C65.6746 39.9314 67.3588 44.0024 67.3569 48.2464C67.355 52.4904 65.6672 56.5599 62.6649 59.5596C59.6625 62.5592 55.5916 64.2433 51.3475 64.2414" stroke="#6A7BC1" stroke-width="3" stroke-linecap="round" stroke-linejoin="round"/>
<path d="M2.48242 79.0465H51.2283" stroke="#6A7BC1" stroke-width="3" stroke-linecap="round" stroke-linejoin="round"/>
<path d="M28.7157 84.7201H24.993C24.6058 84.7201 24.2919 85.034 24.2919 85.4212V85.5119C24.2919 85.8991 24.6058 86.213 24.993 86.213H28.7157C29.103 86.213 29.4169 85.8991 29.4169 85.5119V85.4212C29.4169 85.034 29.103 84.7201 28.7157 84.7201Z" fill="#6A7BC1"/>
</svg>
