<svg width="87" height="87" viewBox="0 0 87 87" fill="none" xmlns="http://www.w3.org/2000/svg">
<path d="M11.9865 58.5399V7.95338H11.8822C6.66424 7.95338 2.42529 12.1004 2.42529 17.2115V66.3892" stroke="#6A7BC1" stroke-width="3" stroke-linecap="round" stroke-linejoin="round"/>
<path d="M11.9864 58.5398H10.8037C8.58094 58.5398 6.4492 59.4228 4.87746 60.9945C3.30572 62.5663 2.42273 64.698 2.42273 66.9208C2.42273 69.1436 3.30572 71.2753 4.87746 72.847C6.4492 74.4188 8.58094 75.3018 10.8037 75.3018H54.8952" stroke="#6A7BC1" stroke-width="3" stroke-linecap="round" stroke-linejoin="round"/>
<path d="M80.0382 17.9119H64.8715" stroke="#6A7BC1" stroke-width="3" stroke-linecap="round" stroke-linejoin="round"/>
<path d="M50.9867 17.9119H12.138H11.9865L11.9939 58.5372" stroke="#6A7BC1" stroke-width="3" stroke-linecap="round" stroke-linejoin="round"/>
<path d="M80.0381 49.8009V17.9119" stroke="#6A7BC1" stroke-width="3" stroke-linecap="round" stroke-linejoin="round"/>
<path d="M25.0736 47.7639H61.6165" stroke="#6A7BC1" stroke-width="3" stroke-linecap="round" stroke-linejoin="round"/>
<path d="M66.007 2.88197L58.4857 10.4132L32.7166 36.1773L29.3026 47.5574L39.6714 42.978L66.1114 16.6797L72.9518 9.83921C73.5102 9.27813 73.8236 8.51876 73.8236 7.72719C73.8236 6.93562 73.5102 6.17625 72.9518 5.61517L70.241 2.88197C69.9638 2.60251 69.634 2.38069 69.2707 2.22931C68.9073 2.07794 68.5176 2 68.124 2C67.7304 2 67.3407 2.07794 66.9773 2.22931C66.614 2.38069 66.2842 2.60251 66.007 2.88197V2.88197ZM32.744 36.1997L39.5869 42.9084L32.744 36.1997ZM60.8214 8.12226L67.6643 14.831L60.8214 8.12226ZM63.4925 5.45366L70.3329 12.1624L63.4925 5.45366Z" stroke="#6A7BC1" stroke-width="3" stroke-linecap="round" stroke-linejoin="round"/>
<path d="M39.5867 42.9012L32.7438 36.1999" stroke="#6A7BC1" stroke-width="3" stroke-linecap="round" stroke-linejoin="round"/>
<path d="M70.3352 12.1525L63.4948 5.45119" stroke="#6A7BC1" stroke-width="3" stroke-linecap="round" stroke-linejoin="round"/>
<path d="M67.6668 14.8212L60.8239 8.11987" stroke="#6A7BC1" stroke-width="3" stroke-linecap="round" stroke-linejoin="round"/>
<path d="M84.6448 45.1201L64.8515 65.2241L44.9438 85.3851H84.6448V45.1201Z" stroke="#6A7BC1" stroke-width="3" stroke-linecap="round" stroke-linejoin="round"/>
<path d="M76.7509 64.3145L70.4173 70.7474L64.049 77.1978H76.7509V64.3145Z" stroke="#6A7BC1" stroke-width="3" stroke-linecap="round" stroke-linejoin="round"/>
<path d="M82.001 64.1202H84.6447" stroke="#6A7BC1" stroke-width="3" stroke-linecap="round" stroke-linejoin="round"/>
<path d="M82.001 66.888H84.6447" stroke="#6A7BC1" stroke-width="3" stroke-linecap="round" stroke-linejoin="round"/>
<path d="M82.001 69.6561H84.6447" stroke="#6A7BC1" stroke-width="3" stroke-linecap="round" stroke-linejoin="round"/>
<path d="M82.001 72.4267H84.6447" stroke="#6A7BC1" stroke-width="3" stroke-linecap="round" stroke-linejoin="round"/>
<path d="M82.001 75.1941H84.6447" stroke="#6A7BC1" stroke-width="3" stroke-linecap="round" stroke-linejoin="round"/>
</svg>
