<svg width="82" height="66" viewBox="0 0 82 66" fill="none" xmlns="http://www.w3.org/2000/svg">
<path d="M15.5742 6.3717C18.377 3.57255 22.1783 2 26.1419 2C30.1056 2 33.9069 3.57255 36.7097 6.3717C39.5124 9.17086 41.087 12.9673 41.087 16.9259C41.087 20.8845 39.5124 24.681 36.7097 27.4801C33.9069 30.2793 30.1056 31.8519 26.1419 31.8519C22.1783 31.8519 18.377 30.2793 15.5742 27.4801C12.7715 24.681 11.1969 20.8845 11.1969 16.9259C11.1969 12.9673 12.7715 9.17086 15.5742 6.3717Z" stroke="#FC9398" stroke-width="3"/>
<path d="M4.69372 39.1347C2.96896 40.8573 2 43.1936 2 45.6296V46.0154C2.0093 46.2839 2.0277 46.5519 2.05518 46.8191C2.37998 49.7971 3.43851 52.6483 5.13615 55.1179C8.35968 59.7748 14.586 64 26.1419 64C37.6979 64 43.9242 59.7748 47.1477 55.1179C48.7158 52.8492 49.493 50.5896 49.8838 48.8996C50.088 48.0116 50.2187 47.1084 50.2747 46.1991C50.2839 46.121 50.2839 46.0613 50.2839 46.0154V45.6296C50.2839 43.1936 49.3149 40.8573 47.5902 39.1347C45.8654 37.4122 43.5261 36.4444 41.087 36.4444H11.1969C8.75775 36.4444 6.41848 37.4122 4.69372 39.1347Z" stroke="#FC9398" stroke-width="3"/>
<path d="M53.651 12.2517C55.807 10.0985 58.7311 8.88889 61.78 8.88889C64.829 8.88889 67.7531 10.0985 69.9091 12.2517C72.065 14.4049 73.2762 17.3253 73.2762 20.3704C73.2762 23.4154 72.065 26.3358 69.9091 28.489C67.7531 30.6422 64.829 31.8519 61.78 31.8519C58.7311 31.8519 55.807 30.6422 53.651 28.489C51.4951 26.3358 50.2839 23.4154 50.2839 20.3704C50.2839 17.3253 51.4951 14.4049 53.651 12.2517Z" stroke="#FC9398" stroke-width="3"/>
<path d="M52.2935 55.4807C54.7674 56.4911 57.8806 57.1111 61.7801 57.1111C70.4298 57.1111 75.2122 54.0432 77.7322 50.5253C79.0469 48.6792 79.8712 46.5302 80.128 44.2794C80.151 44.0703 80.1663 43.8604 80.1739 43.6502V43.3333C80.1739 42.4286 79.9955 41.5328 79.6489 40.697C79.3023 39.8612 78.7942 39.1018 78.1537 38.4621C77.5131 37.8224 76.7527 37.315 75.9159 36.9688C75.079 36.6226 74.1821 36.4444 73.2763 36.4444H51.9854" stroke="#FC9398" stroke-width="3" stroke-linecap="round" stroke-linejoin="round"/>
</svg>
