<svg width="97" height="91" viewBox="0 0 97 91" fill="none" xmlns="http://www.w3.org/2000/svg">
<path d="M89.3623 2.48389H7.63774C4.5241 2.48389 2 5.00799 2 8.12163V83.8206C2 86.9342 4.5241 89.4583 7.63774 89.4583H89.3623C92.4759 89.4583 95 86.9342 95 83.8206V8.12163C95 5.00799 92.4759 2.48389 89.3623 2.48389Z" stroke="#FC9398" stroke-width="3" stroke-linecap="round" stroke-linejoin="round"/>
<path d="M63.7768 33.0156L49.0632 24.5981C48.8658 24.4814 48.6408 24.4199 48.4115 24.4199C48.1822 24.4199 47.9571 24.4814 47.7597 24.5981L33.4209 32.9863C33.2236 33.1002 32.9998 33.1605 32.7719 33.1609C32.544 33.1614 32.32 33.1022 32.1222 32.9891C31.9243 32.876 31.7596 32.713 31.6444 32.5164C31.5292 32.3198 31.4676 32.0964 31.4656 31.8685V2.67932H65.6832V31.8946C65.6773 32.1157 65.6153 32.3317 65.5029 32.5223C65.3906 32.7128 65.2315 32.8716 65.0408 32.9838C64.8502 33.0959 64.6341 33.1577 64.4129 33.1632C64.1918 33.1688 63.9729 33.118 63.7768 33.0156Z" stroke="#FC9398" stroke-width="3" stroke-linecap="round" stroke-linejoin="round"/>
<path d="M82.2615 74.7284H57.8693C56.4943 74.7284 55.3796 75.8431 55.3796 77.2181V77.2214C55.3796 78.5964 56.4943 79.7111 57.8693 79.7111H82.2615C83.6366 79.7111 84.7513 78.5964 84.7513 77.2214V77.2181C84.7513 75.8431 83.6366 74.7284 82.2615 74.7284Z" fill="#FC9398"/>
</svg>
