<svg width="56" height="50" viewBox="0 0 56 50" fill="none" xmlns="http://www.w3.org/2000/svg">
<path d="M45.5827 16.4016C45.0015 16.2011 44.4153 16.0154 43.8247 15.8446C43.9239 15.4371 44.0153 15.0345 44.0963 14.639C45.4272 8.14426 44.5572 2.91199 41.5854 1.18928C38.7361 -0.462227 34.0764 1.25984 29.3703 5.37724C28.9065 5.78375 28.453 6.20198 28.0102 6.63152C27.7138 6.34589 27.4121 6.0658 27.1054 5.7914C22.1732 1.38896 17.2294 -0.466517 14.2609 1.26113C11.4142 2.91778 10.5712 7.83648 11.7694 13.9917C11.8886 14.6013 12.0232 15.2077 12.173 15.8105C11.4733 16.0104 10.798 16.2231 10.1518 16.4496C4.36914 18.4765 0.67627 21.6527 0.67627 24.9474C0.67627 28.3501 4.64073 31.7631 10.6636 33.8327C11.1519 33.9998 11.6442 34.1546 12.1402 34.297C11.9791 34.9462 11.8361 35.5998 11.7113 36.257C10.5691 42.3053 11.4611 47.1078 14.3001 48.7539C17.2324 50.4539 22.154 48.7067 26.946 44.4954C27.3346 44.153 27.7146 43.8009 28.0857 43.4395C28.5652 43.9046 29.0575 44.3562 29.5621 44.7937C34.2042 48.8093 38.7886 50.4307 41.6249 48.7801C44.5544 47.0752 45.5066 41.916 44.2704 35.6393C44.173 35.1475 44.0638 34.6582 43.9429 34.1718C44.2886 34.0688 44.6278 33.9629 44.9585 33.8526C51.2199 31.7672 55.2938 28.3956 55.2938 24.9474C55.2938 21.6407 51.4816 18.443 45.5827 16.4016ZM44.2248 31.6263C43.9261 31.7256 43.6197 31.8215 43.3074 31.9148C42.6161 29.7149 41.6833 27.3757 40.5417 24.9587C41.6311 22.5994 42.528 20.2901 43.1998 18.1046C43.7586 18.2671 44.3007 18.4385 44.8234 18.6193C49.8777 20.3686 52.9606 22.9546 52.9606 24.9474C52.9606 27.0699 49.631 29.8253 44.2248 31.6263ZM41.9816 36.0948C42.5282 38.8702 42.6061 41.3796 42.244 43.3415C41.9189 45.1043 41.2647 46.2795 40.4557 46.7502C38.7346 47.7519 35.0537 46.45 31.0839 43.0157C30.6146 42.6089 30.1567 42.1891 29.7106 41.7567C31.2497 40.0646 32.7877 38.0976 34.2889 35.9129C36.9293 35.6774 39.4238 35.2922 41.6859 34.7665C41.7949 35.2069 41.8935 35.6498 41.9816 36.0948ZM19.2966 46.5772C17.6149 47.1741 16.2755 47.1912 15.4659 46.7219C13.7431 45.7231 13.0269 41.8669 14.0038 36.6945C14.1199 36.0833 14.2529 35.4754 14.4025 34.8716C16.6397 35.3692 19.1161 35.727 21.7627 35.9427C23.274 38.0805 24.8565 40.0453 26.4512 41.7659C26.1123 42.0956 25.7654 42.4168 25.4107 42.7294C23.2915 44.5915 21.1681 45.9127 19.2966 46.5772ZM11.4184 31.6132C8.75518 30.698 6.55576 29.5087 5.04823 28.2109C3.69346 27.0448 3.00967 25.8868 3.00967 24.9474C3.00967 22.948 5.97459 20.3978 10.9198 18.6646C11.52 18.4544 12.1481 18.256 12.7999 18.0698C13.4834 20.3047 14.3799 22.6415 15.4618 25.0044C14.3658 27.4023 13.4565 29.7764 12.7664 32.0377C12.3137 31.9073 11.8642 31.7658 11.4184 31.6132ZM14.0593 13.541C13.0328 8.26759 13.7145 4.2896 15.43 3.29119C17.2572 2.2278 21.2976 3.74396 25.5562 7.54543C25.8339 7.79388 26.1071 8.04737 26.3757 8.30576C24.7888 10.0188 23.2209 11.9691 21.723 14.0942C19.1543 14.3335 16.6954 14.7179 14.4348 15.2329C14.2955 14.6723 14.1703 14.1082 14.0593 13.5413V13.541ZM37.6188 19.3895C37.0849 18.4623 36.5311 17.5467 35.9579 16.6435C37.7005 16.8651 39.3702 17.1591 40.9381 17.5186C40.4675 19.0354 39.8807 20.6211 39.1901 22.2468C38.6853 21.284 38.1615 20.3313 37.6188 19.3895ZM28.0113 9.98215C29.0874 11.1543 30.1652 12.4628 31.2254 13.8827C29.0748 13.7806 26.9207 13.7802 24.7701 13.8814C25.8313 12.4746 26.9183 11.1678 28.0113 9.98215ZM18.342 19.4056C17.8062 20.3398 17.2921 21.2865 16.8002 22.2449C16.1209 20.6249 15.5395 19.032 15.0648 17.4937C16.6231 17.1432 18.2849 16.8567 20.0164 16.6392C19.4368 17.548 18.8786 18.4703 18.342 19.4054V19.4056ZM20.0661 33.4224C18.2772 33.2216 16.5904 32.9499 15.0326 32.6088C15.5147 31.0431 16.1089 29.4163 16.8029 27.7616C17.2968 28.7206 17.813 29.6679 18.3512 30.6026C18.9046 31.5635 19.4777 32.5046 20.0661 33.4224ZM28.0757 40.0777C26.9697 38.8783 25.8667 37.5514 24.7895 36.1242C25.8353 36.1654 26.9014 36.1864 27.985 36.1864C29.0983 36.1864 30.1987 36.1613 31.2819 36.1128C30.2184 37.5657 29.1446 38.8946 28.0757 40.0777ZM39.2121 27.6771C39.9422 29.35 40.5575 30.9683 41.0461 32.5072C39.4626 32.8705 37.7528 33.1631 35.9513 33.3803C36.5286 32.4603 37.0876 31.5289 37.628 30.5865C38.1774 29.6286 38.7056 28.6586 39.2121 27.6771ZM35.6069 29.4146C34.7796 30.8594 33.9058 32.2768 32.9868 33.6645C31.3221 33.783 29.6538 33.8419 27.985 33.841C26.2853 33.841 24.632 33.7878 23.04 33.684C22.097 32.2995 21.2065 30.8796 20.3704 29.4274H20.3706C19.5383 27.9829 18.761 26.5072 18.0402 25.0033C18.7591 23.4992 19.5341 22.0227 20.3635 20.5771L20.3633 20.5773C21.1924 19.1313 22.0758 17.7175 23.0116 16.3389C24.6359 16.2154 26.3015 16.1511 27.9848 16.1511H27.985C29.676 16.1511 31.3438 16.216 32.9676 16.3404C33.894 17.717 34.7717 19.1259 35.5992 20.5647C36.4314 22.0071 37.2167 23.4763 37.9538 24.9701C37.2242 26.4791 36.4414 27.9616 35.6069 29.4146ZM40.4201 3.22127C42.2489 4.28167 42.9602 8.55778 41.8111 14.1654C41.7377 14.5231 41.6554 14.8875 41.5658 15.2571C39.2996 14.7312 36.839 14.3402 34.2628 14.0972C32.7621 11.9487 31.207 9.99545 29.6459 8.30448C30.0551 7.90801 30.4739 7.52183 30.9021 7.14628C34.9345 3.61871 38.7031 2.22587 40.4201 3.22127ZM27.985 20.0443C30.6786 20.0443 32.8622 22.2395 32.8622 24.9474C32.8622 27.6552 30.6786 29.8504 27.985 29.8504C25.2915 29.8504 23.1078 27.6552 23.1078 24.9474C23.1078 22.2395 25.2915 20.0443 27.985 20.0443Z" fill="#00D8FF"/>
</svg>
