<svg width="111" height="90" viewBox="0 0 111 90" fill="none" xmlns="http://www.w3.org/2000/svg">
<path d="M103.698 2H7.33529C4.62216 2 2.42273 4.19943 2.42273 6.91256V34.3498C2.42273 37.0629 4.62216 39.2623 7.33529 39.2623H103.698C106.411 39.2623 108.61 37.0629 108.61 34.3498V6.91256C108.61 4.19943 106.411 2 103.698 2Z" stroke="#C6B3AF" stroke-width="3" stroke-miterlimit="10"/>
<path d="M103.698 50.7377H7.33529C4.62216 50.7377 2.42273 52.9371 2.42273 55.6502V83.0874C2.42273 85.8006 4.62216 88 7.33529 88H103.698C106.411 88 108.61 85.8006 108.61 83.0874V55.6502C108.61 52.9371 106.411 50.7377 103.698 50.7377Z" stroke="#C6B3AF" stroke-width="3" stroke-miterlimit="10"/>
<path d="M13.8729 50.7376V39.2622" stroke="#C6B3AF" stroke-width="3" stroke-miterlimit="10"/>
<path d="M97.1669 50.7376V39.2622" stroke="#C6B3AF" stroke-width="3" stroke-miterlimit="10"/>
<path d="M23.3845 22.4157C24.6276 22.4157 25.6353 21.408 25.6353 20.1649C25.6353 18.9218 24.6276 17.9141 23.3845 17.9141C22.1414 17.9141 21.1337 18.9218 21.1337 20.1649C21.1337 21.408 22.1414 22.4157 23.3845 22.4157Z" fill="#C6B3AF"/>
<path d="M38.2976 22.4157C39.5407 22.4157 40.5484 21.408 40.5484 20.1649C40.5484 18.9218 39.5407 17.9141 38.2976 17.9141C37.0545 17.9141 36.0468 18.9218 36.0468 20.1649C36.0468 21.408 37.0545 22.4157 38.2976 22.4157Z" fill="#C6B3AF"/>
<path d="M53.2136 22.4157C54.4567 22.4157 55.4644 21.408 55.4644 20.1649C55.4644 18.9218 54.4567 17.9141 53.2136 17.9141C51.9705 17.9141 50.9628 18.9218 50.9628 20.1649C50.9628 21.408 51.9705 22.4157 53.2136 22.4157Z" fill="#C6B3AF"/>
<path d="M89.3069 17.6724H72.5077C71.1539 17.6724 70.0565 18.7698 70.0565 20.1235C70.0565 21.4772 71.1539 22.5746 72.5077 22.5746H89.3069C90.6606 22.5746 91.758 21.4772 91.758 20.1235C91.758 18.7698 90.6606 17.6724 89.3069 17.6724Z" fill="#C6B3AF"/>
<path d="M23.3845 71.2393C24.6276 71.2393 25.6353 70.2316 25.6353 68.9885C25.6353 67.7454 24.6276 66.7377 23.3845 66.7377C22.1414 66.7377 21.1337 67.7454 21.1337 68.9885C21.1337 70.2316 22.1414 71.2393 23.3845 71.2393Z" fill="#C6B3AF"/>
<path d="M38.2976 71.2393C39.5407 71.2393 40.5484 70.2316 40.5484 68.9885C40.5484 67.7454 39.5407 66.7377 38.2976 66.7377C37.0545 66.7377 36.0468 67.7454 36.0468 68.9885C36.0468 70.2316 37.0545 71.2393 38.2976 71.2393Z" fill="#C6B3AF"/>
<path d="M53.2136 71.2393C54.4567 71.2393 55.4644 70.2316 55.4644 68.9885C55.4644 67.7454 54.4567 66.7377 53.2136 66.7377C51.9705 66.7377 50.9628 67.7454 50.9628 68.9885C50.9628 70.2316 51.9705 71.2393 53.2136 71.2393Z" fill="#C6B3AF"/>
<path d="M89.3069 66.4961H72.5077C71.1539 66.4961 70.0565 67.5935 70.0565 68.9472C70.0565 70.301 71.1539 71.3984 72.5077 71.3984H89.3069C90.6606 71.3984 91.758 70.301 91.758 68.9472C91.758 67.5935 90.6606 66.4961 89.3069 66.4961Z" fill="#C6B3AF"/>
</svg>
