<svg width="60" height="52" viewBox="0 0 60 52" fill="none" xmlns="http://www.w3.org/2000/svg">
<path d="M37.498 0.0492491C37.498 0.0492491 50.6533 7.61956 54.096 19.646C57.1981 30.5094 54.7139 35.694 54.7139 35.694C56.3004 37.434 57.5505 39.4567 58.4 41.6582C59.2534 43.0728 59.7548 44.6738 59.8616 46.3252C59.9685 47.9766 59.6776 49.6295 59.0137 51.1435C59.0137 51.1435 58.8021 46.7129 52.2424 45.7949C46.2308 44.9428 44.045 50.8346 32.5634 50.5492C26.2018 50.4272 19.9664 48.7405 14.4008 45.6363C8.83529 42.5321 4.10854 38.1045 0.63269 32.7396C6.24226 35.8197 13.5912 40.6017 22.743 39.8669C31.8948 39.132 33.8055 36.3011 33.8055 36.3011C23.5185 28.1066 14.4129 18.5125 6.7501 7.79422C13.9446 13.8543 31.7657 25.9148 31.3509 25.6081C24.8323 19.1962 18.8683 12.2369 13.5235 4.80572C13.5235 4.80572 40.2615 26.9351 42.4135 26.7945C43.298 24.9605 47.8707 15.4668 37.4959 0.0471191L37.498 0.0492491Z" fill="url(#paint0_linear_2_1436)"/>
<defs>
<linearGradient id="paint0_linear_2_1436" x1="31.188" y1="20.498" x2="30.0545" y2="51.1686" gradientUnits="userSpaceOnUse">
<stop stop-color="#F88535"/>
<stop offset="1" stop-color="#FD2221"/>
</linearGradient>
</defs>
</svg>
