<svg width="86" height="77" viewBox="0 0 86 77" fill="none" xmlns="http://www.w3.org/2000/svg">
<path d="M69.984 50.2623C73.3086 52.7153 80.2766 57.5043 82.9338 59.5862C83.5191 60.0601 83.8951 60.7447 83.9812 61.4929C84.0672 62.241 83.8564 62.9931 83.3941 63.5876C82.9317 64.182 82.2546 64.5714 81.5083 64.6721C80.7619 64.7728 80.0059 64.5768 79.4025 64.1261C76.6631 62.0591 69.4212 57.0685 66.2485 54.6777M72.0734 37.3374C71.3191 33.9104 69.5665 30.7837 67.0369 28.3517C64.5073 25.9198 61.3139 24.2916 57.8599 23.6728C54.4059 23.0539 50.8459 23.472 47.6293 24.8744C44.4127 26.2768 41.6835 28.6005 39.7863 31.5525C37.889 34.5044 36.9086 37.9521 36.9689 41.4606C37.0292 44.9692 38.1274 48.3812 40.125 51.2662C42.1225 54.1512 44.9299 56.3798 48.1928 57.6709C51.4557 58.9619 55.0279 59.2575 58.4587 58.5203C60.7484 58.0327 62.919 57.0964 64.845 55.7655C66.771 54.4346 68.4143 52.7353 69.6801 50.7659C70.9459 48.7965 71.8091 46.5959 72.2199 44.2911C72.6306 41.9862 72.5809 39.6229 72.0734 37.3374V37.3374Z" stroke="#6A7BC1" stroke-width="3" stroke-miterlimit="10" stroke-linejoin="round"/>
<path d="M41.4846 40.9758C43.2553 42.3978 44.8391 43.8547 46.6023 45.0451C51.0849 48.0758 55.8514 48.4444 60.74 46.0263C63.2677 44.7811 65.2699 42.8187 67.3792 40.9061C65.2649 38.9885 63.2378 37.0336 60.6977 35.7511C56.8799 33.8235 52.9776 33.704 49.0528 35.3775C46.1465 36.6152 43.9252 38.7793 41.4846 40.9758Z" stroke="#6A7BC1" stroke-width="3" stroke-miterlimit="10" stroke-linejoin="round"/>
<path d="M54.4493 38.1194C53.8978 38.1234 53.3599 38.2909 52.9037 38.6007C52.4475 38.9105 52.0935 39.3487 51.8865 39.8598C51.6794 40.371 51.6287 40.932 51.7407 41.472C51.8527 42.012 52.1224 42.5066 52.5156 42.8932C52.9089 43.2798 53.408 43.5411 53.9498 43.6439C54.4916 43.7467 55.0517 43.6864 55.5593 43.4707C56.0668 43.255 56.4989 42.8936 56.8009 42.4322C57.103 41.9708 57.2613 41.4301 57.2559 40.8787C57.2539 40.5129 57.1797 40.1511 57.0373 39.8141C56.895 39.4771 56.6875 39.1716 56.4266 38.9152C56.1658 38.6587 55.8568 38.4564 55.5174 38.3198C55.1781 38.1832 54.815 38.1151 54.4493 38.1194V38.1194Z" stroke="#6A7BC1" stroke-width="3" stroke-miterlimit="10" stroke-linejoin="round"/>
<path d="M12.2976 75.238H56.0281C56.312 75.238 56.5909 75.238 56.8674 75.2007H56.9595L57.2409 75.1683C57.3804 75.1509 57.5223 75.1309 57.6593 75.1035C57.7963 75.0761 57.8884 75.0612 58.0005 75.0363C58.1125 75.0114 58.2495 74.9815 58.3591 74.9491C58.4686 74.9168 58.5259 74.9093 58.6081 74.8844L58.6455 74.8719L58.775 74.8346L59.0389 74.7499L59.2755 74.6652C59.3751 74.6304 59.4747 74.5905 59.5719 74.5507L59.7985 74.4536L59.9678 74.3739C60.045 74.339 60.1197 74.3041 60.1945 74.2643C60.2692 74.2244 60.3762 74.1722 60.4659 74.1224C60.8731 73.9037 61.2627 73.6539 61.6314 73.3752C61.7285 73.303 61.8231 73.2283 61.9178 73.1511C62.0224 73.0664 62.1245 72.9768 62.2241 72.8871C62.3237 72.7975 62.4233 72.7028 62.5204 72.6082C62.6176 72.5136 62.6649 72.4663 62.7346 72.3916C62.9438 72.1724 63.1405 71.9433 63.3273 71.7042C63.3896 71.6245 63.4518 71.5423 63.5116 71.4552L63.661 71.2435C63.7507 71.114 63.8353 70.982 63.9101 70.8475C63.93 70.8201 63.9474 70.7903 63.9648 70.7604C64.1319 70.4806 64.2841 70.1921 64.4206 69.8962C64.4579 69.8165 64.4928 69.7368 64.5277 69.6472C64.6586 69.3445 64.7717 69.0343 64.8663 68.7183C64.9311 68.5058 64.9884 68.2916 65.0382 68.0758C65.0755 67.9264 65.1054 67.7745 65.1303 67.6225C65.1552 67.4706 65.1776 67.3461 65.1926 67.2067C65.2075 67.0672 65.22 67.0049 65.2299 66.9028C65.2449 66.7559 65.2548 66.609 65.2623 66.4595C65.2698 66.3101 65.2748 66.1408 65.2748 65.9814V64.3253" stroke="#6A7BC1" stroke-width="3" stroke-miterlimit="10" stroke-linejoin="round"/>
<path d="M65.2947 11.2809V13.8983V21.7628" stroke="#6A7BC1" stroke-width="3" stroke-miterlimit="10" stroke-linejoin="round"/>
<path d="M12.2976 12.1824V14.3888V62.8111" stroke="#6A7BC1" stroke-width="3" stroke-miterlimit="10" stroke-linejoin="round"/>
<path d="M12.2976 14.3889V11.8985C12.3009 9.25875 13.3519 6.72823 15.2196 4.8628C17.0874 2.99737 19.6192 1.94958 22.259 1.94958H72.4445" stroke="#6A7BC1" stroke-width="3" stroke-miterlimit="10" stroke-linejoin="round"/>
<path d="M72.7234 1.96204H72.4744H71.4658C68.0092 2.34555 65.2972 5.52074 65.2673 9.36086L65.2549 11.2187L79.552 11.3257L79.5644 9.46794C79.6018 5.35638 76.5362 1.99192 72.7234 1.96204Z" stroke="#6A7BC1" stroke-width="3" stroke-miterlimit="10" stroke-linejoin="round"/>
<path d="M56.8673 75.2007C56.5909 75.2256 56.312 75.238 56.0281 75.238H11.9489C9.31133 75.2348 6.78269 74.1855 4.91762 72.3204C3.05254 70.4554 2.00329 67.9267 2 65.2891V62.8112H47.7776V65.2891C47.777 67.7791 48.7105 70.1788 50.3935 72.0139C52.0765 73.8491 54.3866 74.9862 56.8673 75.2007V75.2007Z" stroke="#6A7BC1" stroke-width="3" stroke-miterlimit="10" stroke-linejoin="round"/>
</svg>
